<?xml version="1.0" encoding="UTF-8" standalone="no"?>
<svg width="523px" height="105px" viewBox="0 0 523 105" version="1.1" xmlns="http://www.w3.org/2000/svg" xmlns:xlink="http://www.w3.org/1999/xlink">
    <!-- Generator: Sketch 3.6.1 (26313) - http://www.bohemiancoding.com/sketch -->
    <title>brand</title>
    <desc>Created with Sketch.</desc>
    <defs></defs>
    <g stroke="none" stroke-width="1" fill="none" fill-rule="evenodd">
        <g>
            <path d="M106.085,97.9559 L99.8623,97.9559 C99.0717,97.9547 98.2812,97.9443 97.491,97.92 C96.8288,97.8996 96.167,97.87 95.5059,97.8304 C94.9691,97.7983 94.4327,97.7595 93.8972,97.7135 C90.661,97.4355 87.4418,96.8932 84.3609,95.9518 C83.9397,95.8231 83.5213,95.6869 83.1062,95.5431 C82.3792,95.2913 81.6624,95.0159 80.9585,94.716 C80.2502,94.4143 79.5552,94.0876 78.8764,93.7357 C78.5844,93.5843 78.2959,93.4278 78.0098,93.2676 L77.9715,93.2459 L77.8519,93.3748 L77.7216,93.5111 C77.605,93.6291 77.5735,93.6623 77.4539,93.778 C77.3183,93.9091 77.1793,94.0375 77.0371,94.1629 C76.6125,94.5372 76.1591,94.8852 75.6813,95.204 C74.9269,95.7075 74.1119,96.1376 73.2563,96.4879 C72.5887,96.7613 71.8967,96.9861 71.1897,97.1631 C70.516,97.3317 69.829,97.4565 69.1359,97.541 C68.7761,97.5849 68.415,97.6167 68.0529,97.6407 C64.5788,97.8492 61.104,98.0494 57.6298,98.2587 C57.4458,98.2684 57.2618,98.2767 57.0775,98.2813 C56.7936,98.2885 56.5095,98.2887 56.2257,98.2818 C55.1086,98.2546 53.9946,98.1166 52.9138,97.8613 C51.5708,97.5442 50.2816,97.0458 49.1091,96.3784 C48.3085,95.9226 47.5633,95.389 46.8919,94.7889 C46.3867,94.3373 45.9235,93.8482 45.5085,93.3282 C45.0558,92.7612 44.6608,92.1576 44.3289,91.5272 C44.2052,91.2923 44.0911,91.0536 43.9849,90.812 L43.9454,90.8966 C43.8791,91.0329 43.861,91.0722 43.7911,91.2074 C43.7083,91.3676 43.6214,91.526 43.5303,91.6825 C43.2118,92.2295 42.8426,92.7528 42.4271,93.2448 C41.6225,94.1973 40.644,95.0294 39.5422,95.7022 C38.5796,96.29 37.5256,96.7538 36.4225,97.0886 C35.6547,97.3217 34.8641,97.4918 34.0639,97.6071 C33.7316,97.655 33.3976,97.6935 33.0627,97.7239 C32.8996,97.7387 32.7363,97.751 32.5729,97.7627 L22.7767,98.3672 L22.8179,98.3639 C22.7527,98.3688 22.6874,98.3735 22.6221,98.378 C22.1456,98.4086 21.6682,98.4232 21.1904,98.4171 C20.3877,98.4068 19.5857,98.3411 18.7953,98.2147 C17.8123,98.0574 16.8478,97.8064 15.9269,97.4601 C14.7286,97.0095 13.6064,96.398 12.6142,95.6458 C11.9764,95.1623 11.3927,94.6219 10.8748,94.0347 C10.2193,93.2913 9.6704,92.4736 9.2423,91.6075 C8.8681,90.8505 8.587,90.0571 8.4007,89.2463 C8.3387,88.9762 8.2873,88.7042 8.2461,88.431 C8.2224,88.2737 8.2032,88.1161 8.1853,87.9582 C5.9113,65.1518 2.7972,42.4189 0.0913,19.6503 C0.0726,19.4809 0.0554,19.3115 0.0421,19.1417 C0.0214,18.8783 0.0082,18.6145 0.0028,18.3505 C-0.0149,17.4879 0.0517,16.6236 0.213,15.7729 C0.4105,14.7307 0.75,13.71 1.2334,12.7452 C1.5437,12.1259 1.9126,11.53 2.3364,10.9671 C2.7387,10.4326 3.1902,9.9279 3.6853,9.4601 C4.3277,8.8532 5.0433,8.3087 5.8157,7.8387 C6.7655,7.2606 7.7999,6.796 8.8832,6.455 C9.8855,6.1395 10.9281,5.9301 11.9835,5.8233 C12.3517,5.786 12.7214,5.7613 13.0916,5.7484 C13.2439,5.7431 13.3962,5.7405 13.5486,5.7386 L13.5768,5.7384 L28.9956,5.4947 L29.1976,5.4953 C29.4545,5.4976 29.7112,5.503 29.9678,5.5142 C30.3824,5.5324 30.7962,5.5638 31.2081,5.6097 C32.412,5.7439 33.5991,6.0032 34.7289,6.4008 C35.7327,6.754 36.6891,7.2147 37.5676,7.7752 C38.1603,8.1534 38.7174,8.5763 39.2305,9.0386 C39.8429,9.5904 40.3923,10.198 40.8688,10.8485 C41.5454,11.7724 42.0724,12.7817 42.4425,13.8353 C42.7422,14.6888 42.9385,15.57 43.0427,16.4594 C43.0804,16.7809 43.106,17.1034 43.1208,17.4263 C43.1295,17.6156 43.1337,17.8049 43.1357,17.9942 L43.1356,17.9714 L43.382,27.0168 L51.9523,26.0964 C52.5557,26.0343 53.1601,25.9811 53.7658,25.9404 C55.0981,25.8509 56.4356,25.8177 57.7712,25.8548 C59.1284,25.8925 60.4837,26.003 61.8238,26.2008 C62.3078,26.2722 62.7897,26.3551 63.2686,26.4498 C63.5225,26.5001 63.7754,26.5541 64.0277,26.6107 L64.1219,26.6322 L63.5897,19.6521 L63.592,19.6748 L63.5807,19.5563 L63.5702,19.4375 C63.5536,19.2338 63.5392,19.03 63.5295,18.8259 C63.5069,18.3487 63.5056,17.8707 63.5289,17.3935 C63.5809,16.3279 63.7559,15.2665 64.0728,14.2378 C64.4324,13.07 64.9743,11.9476 65.6911,10.9198 C66.1375,10.2796 66.6506,9.6768 67.2224,9.1223 C67.6693,8.6889 68.1519,8.2851 68.6647,7.9149 C69.6952,7.171 70.8468,6.5654 72.0694,6.1118 C73.1275,5.7193 74.2367,5.4413 75.3654,5.2694 C75.8141,5.2011 76.2658,5.1494 76.7191,5.113 C76.9348,5.0957 77.1508,5.0828 77.367,5.0714 C82.6451,4.835 87.9222,4.5814 93.1997,4.3337 C93.3887,4.3262 93.5777,4.32 93.7668,4.3172 C94.1663,4.3112 94.566,4.3174 94.9649,4.3371 C96.0724,4.3916 97.174,4.5499 98.2406,4.8239 C99.2681,5.0877 100.261,5.4582 101.19,5.9311 C102.087,6.3874 102.924,6.9403 103.675,7.5736 C104.408,8.1922 105.06,8.8878 105.615,9.6413 C106.092,10.2902 106.498,10.9818 106.826,11.7014 C107.034,12.1575 107.211,12.6246 107.357,13.0994 C107.715,14.2627 107.886,15.4681 107.901,16.6737 C107.906,17.0813 107.893,17.4891 107.865,17.8959 C107.851,18.1022 107.831,18.3081 107.811,18.514 L106.999,24.8707 L116.594,24.9757 L116.188,19.6531 L116.19,19.6758 L116.179,19.5552 C116.157,19.312 116.139,19.0686 116.127,18.8248 C116.105,18.348 116.104,17.8703 116.127,17.3935 C116.179,16.3284 116.354,15.2673 116.67,14.2391 C117.03,13.0718 117.571,11.9494 118.288,10.922 C119.022,9.8683 119.938,8.9172 120.995,8.1131 C121.574,7.673 122.194,7.2768 122.846,6.9289 C123.43,6.6174 124.04,6.3447 124.667,6.1118 C125.725,5.7193 126.835,5.4413 127.963,5.2694 C128.412,5.2011 128.864,5.1494 129.317,5.113 C129.533,5.0957 129.749,5.0827 129.965,5.0714 C135.243,4.835 140.52,4.5813 145.798,4.3337 C145.987,4.3262 146.176,4.32 146.365,4.3172 C146.764,4.3112 147.164,4.3174 147.563,4.3371 C148.736,4.3949 149.902,4.5691 151.027,4.8735 C151.987,5.1333 152.915,5.487 153.787,5.9307 C155.003,6.5489 156.106,7.3443 157.039,8.2766 C157.466,8.704 157.858,9.1598 158.211,9.6389 C158.362,9.8437 158.504,10.053 158.642,10.2653 L158.657,10.2901 L158.745,10.2361 L158.873,10.1582 C159.046,10.0567 159.219,9.957 159.395,9.8616 C159.797,9.6441 160.21,9.4446 160.633,9.2626 C160.938,9.1314 161.248,9.0093 161.561,8.8959 C163.385,8.2367 165.327,7.8797 167.277,7.688 C167.567,7.6595 167.858,7.6346 168.148,7.6129 C168.55,7.5831 168.951,7.5594 169.354,7.5409 C170.036,7.5095 170.719,7.4932 171.402,7.4884 C172.704,7.4793 174.007,7.5115 175.308,7.57 C176.76,7.6353 178.21,7.7335 179.658,7.8538 C182.387,8.0805 185.109,8.3847 187.822,8.7328 C188.575,8.8295 189.328,8.9297 190.08,9.0328 C190.78,9.1287 191.481,9.228 192.181,9.3255 L192.27,9.3378 L218.624,10.8967 C218.742,10.9043 218.861,10.9121 218.98,10.9201 C219.77,10.9756 220.559,11.0453 221.345,11.1348 C223.052,11.3289 224.748,11.611 226.412,12.0047 C228.011,12.383 229.581,12.8649 231.092,13.4672 C232.674,14.0978 234.192,14.8609 235.603,15.7604 C236.249,16.1716 236.872,16.611 237.469,17.0774 C237.8,17.336 238.122,17.6032 238.437,17.8775 C238.501,17.8432 238.567,17.8095 238.632,17.7757 C238.874,17.6525 239.117,17.5319 239.364,17.4161 C239.901,17.1634 240.45,16.9301 241.008,16.7155 C241.361,16.5797 241.718,16.4515 242.077,16.3305 C244.547,15.4991 247.149,15.0132 249.767,14.7533 C250.216,14.7087 250.666,14.6707 251.116,14.6388 C251.631,14.6022 252.147,14.5736 252.664,14.552 C253.25,14.5276 253.837,14.5131 254.424,14.5051 C262.927,14.4127 271.429,14.3507 279.932,14.2681 C280.665,14.263 281.398,14.2707 282.131,14.2959 C283.553,14.3447 284.972,14.4556 286.38,14.6416 C287.386,14.7745 288.386,14.9457 289.374,15.1598 C289.797,15.2512 290.216,15.3514 290.634,15.4577 L290.665,15.4657 L290.532,13.9244 L290.531,13.9081 C290.516,13.7575 290.503,13.6069 290.493,13.456 C290.475,13.1949 290.466,12.9334 290.464,12.6719 C290.46,11.8653 290.534,11.058 290.696,10.2643 C290.84,9.5576 291.053,8.8623 291.335,8.1896 C291.61,7.5319 291.953,6.8956 292.356,6.2934 C293.045,5.2656 293.915,4.3369 294.924,3.55 C295.707,2.939 296.573,2.414 297.495,1.985 C298.193,1.66 298.923,1.391 299.672,1.176 C300.27,1.004 300.88,0.867 301.496,0.761 C302.017,0.672 302.543,0.605 303.071,0.557 C303.279,0.538 303.487,0.521 303.695,0.508 C303.8,0.501 303.905,0.495 304.011,0.488 L318.716,0.018 L318.711,0.018 L318.853,0.012 C318.99,0.008 319.015,0.006 319.15,0.003 C319.29,0 319.31,0.001 319.451,0 C319.605,0 319.604,0 319.758,0.001 C319.896,0.003 319.933,0.003 320.072,0.008 C320.342,0.016 320.612,0.031 320.881,0.053 C321.593,0.11 322.299,0.214 322.992,0.368 C324.136,0.621 325.242,1.01 326.268,1.53 C326.727,1.763 327.169,2.021 327.591,2.303 C327.72,2.389 327.826,2.462 327.951,2.552 C327.991,2.581 328.031,2.611 328.07,2.64 L328.185,2.587 C328.308,2.532 328.345,2.516 328.468,2.462 C328.702,2.359 328.939,2.261 329.178,2.166 C329.84,1.902 330.516,1.667 331.203,1.46 C333.693,0.708 336.307,0.325 338.927,0.206 C339.837,0.165 340.748,0.155 341.658,0.172 C342.125,0.181 342.592,0.198 343.058,0.219 L361.304,1.175 C361.582,1.191 361.86,1.21 362.137,1.231 C362.675,1.273 363.213,1.326 363.748,1.391 C365.244,1.573 366.726,1.85 368.171,2.243 C369.728,2.666 371.239,3.226 372.662,3.935 C373.446,4.325 374.203,4.7599 374.924,5.2381 C375.619,5.6985 376.28,6.199 376.902,6.736 C377.568,7.3111 378.189,7.9283 378.758,8.5812 C378.947,8.7971 379.13,9.0169 379.307,9.2403 C379.396,9.3533 379.484,9.4674 379.571,9.5819 L379.598,9.6183 C379.666,9.6091 379.734,9.6005 379.802,9.5919 L379.936,9.576 C380.157,9.5513 380.378,9.5291 380.6,9.5117 C381.052,9.476 381.506,9.4566 381.96,9.4521 C382.268,9.449 382.576,9.4529 382.884,9.4631 C383.058,9.4689 383.232,9.4774 383.405,9.4861 L434.748,13.0046 C434.975,13.0226 435.202,13.0413 435.429,13.063 C435.872,13.1055 436.315,13.1571 436.756,13.2197 C437.756,13.3618 438.748,13.5613 439.714,13.8346 C440.883,14.1653 442.015,14.6043 443.074,15.1586 C443.797,15.5368 444.485,15.9678 445.128,16.4475 C445.66,16.8442 446.161,17.2741 446.626,17.7329 C447.156,18.2552 447.64,18.8149 448.073,19.4041 C448.259,19.6558 448.433,19.9132 448.602,20.1744 C448.68,20.1531 448.758,20.1322 448.836,20.1113 C449.129,20.035 449.422,19.9619 449.716,19.8937 C450.306,19.7574 450.9,19.6383 451.498,19.5349 C453.168,19.246 454.863,19.0788 456.561,18.9973 C457.201,18.9666 457.842,18.9491 458.483,18.9403 C466.05,18.8585 473.618,18.803 481.185,18.7294 C482,18.7238 482.816,18.7358 483.63,18.7718 C485.335,18.847 487.035,19.0219 488.709,19.3218 C490.251,19.5979 491.769,19.9802 493.237,20.4835 C494.986,21.083 496.661,21.8548 498.208,22.8006 C499.179,23.3938 500.098,24.0547 500.952,24.7769 C502.075,25.7265 503.086,26.7819 503.966,27.919 C505.117,29.4076 506.041,31.0329 506.737,32.7322 C507.415,34.3893 507.879,36.1137 508.161,37.8596 C508.262,38.4843 508.341,39.1121 508.398,39.7413 C508.431,40.1111 508.457,40.4814 508.477,40.8519 L508.479,40.889 L509.709,57.7002 C509.756,57.7073 509.804,57.715 509.852,57.7225 C510.205,57.7803 510.556,57.8458 510.904,57.9232 C511.615,58.081 512.313,58.2834 512.99,58.5337 C513.907,58.8728 514.784,59.2997 515.595,59.8119 C516.046,60.0964 516.476,60.4068 516.882,60.7413 C517.202,61.0053 517.507,61.2846 517.794,61.577 C518.216,62.0052 518.598,62.4635 518.946,62.9415 C519.307,63.4379 519.631,63.9554 519.925,64.4865 C520.279,65.1291 520.588,65.7915 520.862,66.4649 C521.103,67.0576 521.317,67.6591 521.507,68.2665 C521.79,69.1732 522.022,70.0931 522.204,71.0205 C522.323,71.6273 522.42,72.2375 522.495,72.8499 C522.545,73.2638 522.585,73.6788 522.614,74.0944 C522.637,74.4242 522.653,74.7545 522.661,75.0849 C522.709,76.9889 522.509,78.9072 521.949,80.7479 C521.872,81.0003 521.788,81.251 521.698,81.4997 C521.569,81.8544 521.425,82.2051 521.268,82.5505 C521.079,82.9627 520.87,83.3674 520.64,83.7624 C520.332,84.2927 519.985,84.8055 519.602,85.2952 C519.103,85.932 518.542,86.5296 517.924,87.0767 C517.201,87.7177 516.401,88.2895 515.54,88.7762 C514.47,89.3816 513.305,89.8478 512.098,90.1879 C511.772,90.2799 511.443,90.364 511.111,90.4398 C510.369,90.6096 509.616,90.74 508.859,90.8418 C507.807,90.9832 506.747,91.0701 505.686,91.1246 C504.515,91.1848 503.342,91.2054 502.17,91.2021 C501.14,91.1992 500.11,91.1778 499.08,91.1431 C497.454,91.0884 495.829,91.0012 494.206,90.8924 C492.029,90.7465 489.855,90.5614 487.686,90.344 L487.448,90.3198 L487.429,90.3178 L487.396,90.32 L487.321,90.3116 C487.236,90.315 487.152,90.3182 487.067,90.3213 C486.535,90.3394 486.003,90.3503 485.47,90.3525 C484.819,90.3553 484.168,90.3455 483.517,90.3276 C476.493,90.1151 469.468,89.9082 462.444,89.6985 C462.23,89.6914 462.017,89.6835 461.804,89.6735 C461.329,89.6513 460.854,89.621 460.38,89.5818 C459.089,89.475 457.804,89.3027 456.538,89.0511 C455.184,88.7822 453.853,88.4224 452.566,87.9596 C451.232,87.4797 449.947,86.8889 448.742,86.1856 C448.098,85.8093 447.476,85.401 446.883,84.9624 C446.646,84.7878 446.415,84.6084 446.188,84.4244 C446.096,84.3505 446.064,84.3234 445.976,84.2506 L445.927,84.2725 C445.76,84.344 445.726,84.3597 445.559,84.4274 C445.379,84.4999 445.198,84.569 445.016,84.6348 C444.354,84.8734 443.672,85.0669 442.978,85.2181 C442.203,85.3872 441.414,85.5029 440.62,85.5751 C440.355,85.5991 440.09,85.6182 439.825,85.6331 C439.679,85.6413 439.532,85.6477 439.385,85.6541 L394.6,86.9477 C394.431,86.9474 394.262,86.9474 394.093,86.9453 C393.81,86.9417 393.526,86.9336 393.243,86.9205 C392.451,86.8836 391.661,86.8069 390.88,86.6818 C389.857,86.5181 388.852,86.2715 387.883,85.9356 C387.292,85.7307 386.716,85.4923 386.159,85.2218 C385.95,85.1206 385.745,85.0144 385.542,84.9046 C385.498,84.9361 385.454,84.9671 385.41,84.9983 C385.21,85.1376 385.009,85.2748 384.803,85.4078 C384.318,85.7223 383.816,86.0167 383.302,86.2912 C382.884,86.5144 382.457,86.7244 382.022,86.9216 C381.68,87.0771 381.334,87.2246 380.983,87.3645 C378.386,88.4006 375.599,89.0101 372.79,89.3579 C372.276,89.4215 371.76,89.4764 371.244,89.5234 C370.575,89.5844 369.904,89.6323 369.233,89.6687 C368.344,89.7169 367.455,89.7452 366.565,89.757 C365.478,89.7714 364.391,89.76 363.304,89.731 L341.985,89.0857 C341.491,89.0686 340.996,89.0476 340.502,89.0203 C339.034,88.9391 337.568,88.8081 336.114,88.6058 C334.684,88.4067 333.264,88.1385 331.874,87.7761 C331.502,87.679 331.131,87.5752 330.764,87.4641 C330.599,87.4143 330.435,87.3626 330.271,87.3102 L330.205,87.2888 L330.139,87.3435 L329.976,87.4741 C329.921,87.5172 329.865,87.5608 329.81,87.6035 C329.646,87.7288 329.478,87.8505 329.308,87.9686 C328.814,88.3105 328.294,88.6214 327.752,88.8996 C326.947,89.3133 326.096,89.6535 325.217,89.9203 C324.516,90.1333 323.796,90.2993 323.068,90.4224 C322.523,90.5146 321.973,90.5826 321.42,90.6293 C321.206,90.6474 320.991,90.6623 320.776,90.6743 C320.651,90.6813 320.561,90.6851 320.428,90.6914 L311.413,90.9254 L311.441,90.9242 L311.306,90.9295 C311.166,90.9341 311.027,90.9382 310.887,90.9403 C310.651,90.9438 310.414,90.9431 310.178,90.938 C309.267,90.9181 308.357,90.8322 307.462,90.6743 C306.269,90.4636 305.103,90.1244 304.005,89.6557 C303.37,89.3848 302.757,89.0712 302.175,88.7174 C301.978,88.5973 301.785,88.4723 301.594,88.3433 C301.537,88.3792 301.48,88.4139 301.422,88.4493 C301.14,88.6206 300.854,88.7869 300.563,88.9464 C300.015,89.2472 299.452,89.5258 298.877,89.7825 C298.279,90.0493 297.667,90.2922 297.046,90.5121 C296.617,90.664 296.183,90.8049 295.745,90.9352 C293.143,91.7103 290.416,92.1082 287.684,92.2711 C287.288,92.2947 286.891,92.3134 286.493,92.3277 C285.888,92.3493 285.283,92.3604 284.677,92.3625 C283.988,92.3647 283.3,92.3543 282.612,92.3356 C274.709,92.0986 266.806,91.8638 258.904,91.628 C258.614,91.6183 258.324,91.607 258.035,91.5923 C257.463,91.5634 256.892,91.5236 256.322,91.4717 C254.492,91.3052 252.675,91.0145 250.904,90.5661 C249.217,90.1388 247.575,89.5674 246.023,88.8365 C245.106,88.4048 244.221,87.918 243.38,87.3772 C242.547,86.8419 241.756,86.2539 241.017,85.6177 C240.031,84.7688 239.138,83.8341 238.352,82.8314 C237.661,81.9495 237.054,81.0155 236.533,80.0446 C236.366,79.7331 236.207,79.4178 236.058,79.0992 C235.966,78.9035 235.878,78.7063 235.792,78.5084 L235.779,78.4779 C235.71,78.5198 235.64,78.5614 235.57,78.6028 C235.489,78.6502 235.408,78.6972 235.327,78.7438 C234.902,78.9874 234.468,79.22 234.027,79.4396 C233.19,79.8555 232.326,80.2269 231.442,80.5543 C229.584,81.2422 227.639,81.7332 225.662,82.0539 C223.716,82.3695 221.74,82.5213 219.763,82.5461 C218.833,82.5578 217.902,82.5407 216.972,82.5007 L204.007,81.9799 L204.159,91.5853 C204.159,91.7204 204.159,91.8554 204.158,91.9904 C204.156,92.196 204.152,92.4014 204.144,92.6068 C204.129,92.9651 204.101,93.323 204.056,93.6793 C203.947,94.5571 203.739,95.4249 203.421,96.2612 C203.168,96.9257 202.846,97.5694 202.459,98.1802 C201.936,99.0061 201.295,99.7712 200.554,100.4506 C199.872,101.0756 199.108,101.6273 198.283,102.0936 C197.783,102.3767 197.26,102.628 196.721,102.8471 C196.07,103.1115 195.396,103.3282 194.708,103.4992 C194.168,103.6332 193.62,103.7389 193.068,103.8193 C192.623,103.884 192.175,103.9321 191.726,103.9659 C191.46,103.9859 191.194,103.9995 190.927,104.0117 L180.786,104.262 C180.55,104.2612 180.315,104.2602 180.08,104.2533 C179.729,104.243 179.377,104.2231 179.027,104.1928 C177.83,104.0892 176.645,103.8632 175.511,103.5013 C174.693,103.2399 173.902,102.9086 173.155,102.5101 C172.479,102.1492 171.839,101.7334 171.248,101.2686 C170.547,100.7184 169.914,100.0997 169.362,99.427 C168.691,98.6087 168.142,97.7111 167.728,96.7662 C167.666,96.7827 167.603,96.7988 167.54,96.815 C167.379,96.8556 167.219,96.8958 167.058,96.9345 C166.681,97.0248 166.302,97.1087 165.922,97.1863 C164.768,97.4216 163.6,97.5988 162.425,97.7242 C161.627,97.8094 160.826,97.8705 160.024,97.9098 C159.734,97.9241 159.444,97.9354 159.153,97.944 C158.997,97.9486 158.84,97.9521 158.683,97.9559 L152.46,97.9559 C151.63,97.9546 150.799,97.9432 149.969,97.9162 C149.27,97.8934 148.571,97.8605 147.873,97.8162 C147.375,97.7846 146.878,97.7472 146.381,97.7036 C142.963,97.4033 139.562,96.8059 136.328,95.7528 C135.806,95.5826 135.288,95.4007 134.776,95.2065 C134.022,94.9206 133.281,94.6083 132.555,94.2685 C131.658,93.8484 130.785,93.3864 129.944,92.8822 C129.192,92.4319 128.466,91.9482 127.769,91.4323 C127.395,91.1556 127.03,90.8693 126.674,90.5749 C126.636,90.6107 126.598,90.646 126.561,90.6815 C126.411,90.8208 126.26,90.9592 126.106,91.0954 C125.837,91.3346 125.561,91.568 125.278,91.7954 C124.427,92.4816 123.521,93.1128 122.57,93.6846 C121.294,94.4518 119.939,95.1117 118.531,95.6633 C117.213,96.1798 115.849,96.6014 114.459,96.9345 C112.663,97.3651 110.825,97.6479 108.975,97.806 C108.344,97.8599 107.712,97.8994 107.079,97.9255 C106.748,97.9391 106.417,97.948 106.085,97.9559 L106.085,97.9559 Z M488.17,90.2691 C488.065,90.2752 487.96,90.2811 487.855,90.2867 C487.698,90.2948 487.54,90.3022 487.382,90.3091 L487.355,90.3102 L487.429,90.3178 C487.728,90.2984 488.027,90.2792 488.327,90.2595 C488.379,90.2561 488.223,90.2659 488.17,90.2691 L488.17,90.2691 Z M487.321,90.3116 L487.355,90.3102 C487.139,90.288 486.923,90.2653 486.707,90.2422 C486.605,90.2312 486.503,90.22 486.4,90.2087 C486.707,90.243 487.014,90.2773 487.321,90.3116 L487.321,90.3116 Z" fill-opacity="0.867810236" fill="#072238"></path>
            <path d="M28.4824,36.2518 L27.9342,13.7771 C27.9342,11.4331 26.975,10.468 24.6453,10.468 L9.0229,10.7437 C6.9673,10.7437 5.871,11.9847 6.1451,14.4665 L14.3674,91.956 C14.5044,93.6106 15.8748,94.0242 17.3823,93.8863 L27.3861,93.1969 C29.1676,93.059 29.8528,92.5075 29.8528,90.715 L30.2639,59.0023 C30.4009,51.5567 32.0454,49.9021 37.1158,49.3506 L44.1048,48.6612 C48.4901,48.2475 50.2716,50.04 50.2716,53.6249 L49.8604,91.2666 C49.8604,92.9212 51.0938,93.8863 53.0123,93.7484 L63.4273,93.059 C65.6199,92.9212 66.4421,91.8181 66.4421,89.8878 L66.5792,48.3854 C66.5792,40.2504 63.4273,32.1154 49.1752,33.77 L28.4824,36.2518 Z M146.913,47.7473 L156.154,48.4367 C158.346,48.5746 159.854,47.6094 159.991,45.4033 L160.813,35.2 C160.95,32.4424 159.306,31.5078 156.428,31.6457 L147.598,32.3045 L149.791,13.139 C150.065,10.1056 148.831,9.0025 146.365,9.1404 L130.468,9.9677 C127.453,10.1056 126.494,11.7602 126.768,14.6557 L128.002,32.7182 L94.1529,32.3045 L96.3456,13.139 C96.6196,10.1056 95.3863,9.0025 92.9196,9.1404 L77.0231,9.9677 C74.0082,10.1056 73.049,11.7602 73.323,14.6557 L74.5564,32.7182 L74.8037,32.4424 C71.7888,32.3045 70.8296,33.9591 70.9666,36.7167 L71.5147,44.9896 C71.6518,47.3336 73.0222,48.8503 76.3111,48.7124 L74.9675,48.1609 L74.4194,67.878 C73.8712,85.9405 81.4083,93.3861 99.2234,93.3861 L105.39,93.3861 C116.627,93.1103 121.972,86.9056 122.383,78.357 L122.794,69.2568 C122.931,67.3265 121.698,66.637 120.327,66.637 L109.912,66.9128 C108.131,66.9128 107.446,67.878 107.309,69.2568 L107.035,74.0826 C106.623,77.2539 105.116,78.357 102.101,78.4949 L101.279,78.4949 C96.3456,78.6327 93.0566,76.9782 93.1937,68.981 L93.4677,47.7473 L128.413,48.1609 L127.864,67.878 C127.316,85.9405 134.853,93.3861 152.668,93.3861 L158.835,93.3861 C170.072,93.1103 175.417,86.9056 175.828,78.357 L176.239,69.2568 C176.376,67.3265 175.143,66.637 173.772,66.637 L163.357,66.9128 C161.576,66.9128 160.891,67.878 160.754,69.2568 L160.48,74.0826 C160.069,77.2539 158.561,78.357 155.546,78.4949 L154.724,78.4949 C149.791,78.6327 146.502,76.9782 146.639,68.981 L146.913,47.7473 Z M178.892,33.4088 C174.857,30.7575 165.322,34.3847 164.496,31.8082 C163.587,28.9766 162.843,19.1622 164.496,14.8191 C166.262,10.1781 190.947,14.7006 191.998,14.7789 L219.132,16.5714 C230.917,17.3987 236.398,22.7761 236.672,33.1172 L237.495,56.557 C238.043,71.8619 229.821,76.412 218.72,75.8605 L197.205,74.8953 C195.013,74.7574 193.779,75.7226 193.916,77.9287 L194.19,97.2321 C194.19,98.8867 194.19,100.1276 191.313,100.2655 L181.309,100.5413 C178.842,100.5413 178.157,99.3003 178.157,97.37 C178.157,97.37 181.898,35.3838 178.892,33.4088 Z M220.502,56.0055 C220.639,61.6587 217.898,63.0375 213.102,62.8996 L209.265,62.7617 C203.372,62.486 201.042,60.5556 201.179,55.7298 L201.728,35.7369 C201.865,32.4278 203.509,29.808 208.443,30.0838 L213.239,30.3595 C218.172,30.6353 219.817,32.8414 219.954,37.2536 L220.502,56.0055 Z M256.563,20.6892 C243.962,20.8218 240.381,25.8621 240.646,34.0857 L240.912,42.1766 C241.044,45.3599 242.901,45.8904 244.891,45.7578 L254.573,45.0946 C256.165,44.962 257.094,44.4314 256.961,42.3092 L256.828,39.5238 C256.696,36.0752 258.685,35.0141 261.471,34.8815 L273.408,34.6162 C277.785,34.4836 279.775,35.81 280.04,40.7176 L280.438,48.1453 C280.57,49.4717 279.907,50.1349 278.714,50.1349 L261.869,50.7981 C249.798,51.196 245.819,55.7057 246.217,65.9188 L246.482,72.2854 C246.748,79.7132 249.931,85.8145 261.205,86.2124 L285.08,87.0083 C300.201,87.5388 303.517,81.3048 302.986,67.3778 L300.997,37.0037 C300.466,24.5357 292.773,20.2913 282.162,20.4239 L256.563,20.6892 Z M272.877,74.9382 C268.235,74.8055 267.041,73.3465 266.776,70.0306 L266.511,67.1125 C266.246,63.0008 267.572,61.2765 271.551,61.2765 L280.703,61.1438 C284.284,61.1438 285.876,62.6028 286.274,65.7862 L286.539,70.5611 C286.804,73.4792 285.611,75.2035 280.968,75.0708 L272.877,74.9382 Z M324.872,7.0275 C324.872,5.3032 324.341,4.109 322.086,4.242 L307.231,4.7726 C305.241,4.9053 303.65,5.4358 303.915,8.0886 L309.618,82.1006 C309.751,84.4881 311.343,85.5492 313.73,85.4166 L322.882,85.1513 C325.535,85.0187 326.861,83.9576 326.729,81.1722 L324.872,7.0275 Z M329.642,38.1398 C329.426,45.2633 330.613,51.9551 344.644,50.6599 L363.532,48.825 C373.138,47.8537 375.944,42.565 376.052,35.5494 L376.376,19.2517 C376.592,10.1854 372.491,6.084 364.18,5.5444 L345.724,4.465 C335.578,3.925 330.613,8.1347 330.289,16.7693 L329.642,38.1398 Z M352.739,39.6508 C349.609,39.9746 346.587,38.4636 346.803,34.578 L347.45,21.95 C347.558,19.0358 349.393,16.9851 352.955,17.0931 L360.079,17.4169 C365.151,17.6327 365.799,19.7914 365.799,23.7848 L365.691,32.0956 C365.691,37.4922 362.669,38.7874 358.675,39.1112 L352.739,39.6508 Z M386.08,61.2635 C386.333,56.4414 384.943,51.9116 368.512,52.7884 L346.393,54.0304 C335.144,54.688 331.858,58.268 331.732,63.0169 L331.353,74.0492 C331.1,80.1863 335.903,82.9627 345.635,83.328 L367.248,84.0586 C379.129,84.4239 384.943,81.5745 385.322,75.7296 L386.08,61.2635 Z M359.032,60.2406 C362.698,60.0214 366.237,61.0443 365.984,63.6745 L365.225,72.2227 C365.099,74.1953 362.95,75.5835 358.78,75.5104 L350.438,75.2912 C344.497,75.1451 343.739,73.6839 343.739,70.9806 L343.865,65.3549 C343.865,61.7018 347.404,60.8251 352.081,60.6059 L359.032,60.2406 Z M445.222,25.9822 C444.559,20.942 443.232,19.3503 438.59,18.9524 L386.596,14.9733 C384.341,14.8406 382.617,15.5038 382.484,17.7587 L381.821,28.7676 C381.556,32.4815 383.147,33.6752 386.198,33.6752 L428.377,34.869 C430.234,34.869 430.764,35.5322 430.897,36.7259 L431.03,37.6544 C431.295,39.5113 430.234,40.1745 428.642,40.705 L398.003,51.714 C393.228,53.4383 391.371,56.2237 391.901,61.9271 L393.095,75.9868 C393.493,80.0986 395.748,80.8944 398.533,80.8944 L443.763,79.4354 C446.681,79.3027 447.609,78.2416 447.609,75.3236 L447.344,66.8347 C447.211,63.6514 445.752,62.8556 443.232,62.9882 L412.593,64.3146 C410.869,64.4473 409.807,63.6514 409.675,62.5903 L409.542,61.6619 C409.41,60.4681 409.542,59.5397 411.664,58.6112 L441.508,45.6127 C445.354,43.8884 447.211,42.1641 446.416,35.6648 L445.222,25.9822 Z M493.275,84.6717 C492.056,84.7628 490.722,84.7822 489.266,84.7311 L468.023,84.023 C457.991,83.6689 455.159,78.2401 454.923,71.6311 L454.687,65.9663 C454.333,56.8789 457.873,52.8663 468.613,52.5122 L483.601,51.9221 C484.663,51.9221 485.253,51.332 485.135,50.1519 L484.781,43.5429 C484.545,39.1762 482.775,37.996 478.88,38.1141 L468.259,38.3501 C465.78,38.4681 464.01,39.4122 464.128,42.4807 L464.246,44.9591 C464.364,46.8474 463.538,47.3194 462.122,47.4375 L453.507,48.0275 C451.736,48.1456 450.084,47.6735 449.966,44.8411 L449.73,37.642 C449.494,30.3249 452.68,25.8402 463.892,25.7222 L486.67,25.4861 C496.111,25.3681 502.956,29.1447 503.428,40.2384 L505.198,67.2645 C505.241,68.394 505.256,69.4667 505.237,70.4832 C505.237,70.4832 513.963,68.1184 515.709,70.4832 C517.454,72.8479 519.448,82.3069 515.709,84.6717 C511.97,87.0365 493.275,84.6717 493.275,84.6717 Z M478.408,73.9915 C474.278,73.8735 473.216,72.5753 472.98,69.6248 L472.744,67.0284 C472.507,63.3699 473.688,61.8356 477.228,61.8356 L485.371,61.7176 C488.558,61.7176 489.974,63.0158 490.328,65.8482 L490.564,70.0969 C490.8,72.6933 489.738,74.2275 485.607,74.1095 L478.408,73.9915 Z" fill="#1FD080"></path>
            <path d="M186.958,23.7131 L173.787,23.2664 C173.746,23.2616 173.705,23.2601 173.664,23.252 C173.501,23.2191 173.352,23.1316 173.244,23.0058 C173.19,22.9429 173.147,22.8716 173.116,22.7946 C173.039,22.6013 173.046,22.3801 173.136,22.1924 C173.172,22.1177 173.22,22.0495 173.278,21.9904 C173.336,21.9314 173.404,21.8824 173.478,21.8455 C173.552,21.8085 173.632,21.7841 173.714,21.7733 C173.755,21.7679 173.797,21.7692 173.838,21.7672 C188.388,22.2607 202.938,22.7542 217.488,23.2477 C217.536,23.2365 217.584,23.2259 217.632,23.2156 C217.68,23.2056 217.728,23.1959 217.776,23.1864 C218.273,23.0916 218.777,23.0332 219.282,23.0082 C219.862,22.9795 220.444,22.9945 221.021,23.0577 C221.879,23.1517 222.727,23.3537 223.528,23.6784 C224.091,23.9065 224.629,24.1946 225.128,24.5393 C225.494,24.7913 225.838,25.0732 226.158,25.3807 C226.378,25.5917 226.586,25.8145 226.782,26.0475 C226.926,26.2184 227.064,26.3947 227.194,26.5758 C228.034,27.7372 228.598,29.0779 228.969,30.4571 C229.025,30.6675 229.077,30.8791 229.125,31.0916 C229.191,31.3813 229.249,31.6726 229.3,31.9652 C229.363,32.323 229.415,32.6825 229.458,33.0431 C229.514,33.5073 229.555,33.9731 229.584,34.4397 C229.612,34.9152 229.636,35.3909 229.662,35.8665 C229.926,40.8122 230.16,45.7596 230.364,50.7083 C230.443,52.6348 230.519,54.5615 230.59,56.4883 C230.638,57.7905 230.685,59.0927 230.727,60.3951 L230.727,60.4833 C230.718,60.8559 230.675,61.2274 230.611,61.5943 C230.521,62.1105 230.385,62.6189 230.207,63.1121 C229.948,63.8328 229.599,64.5211 229.166,65.1532 C228.835,65.6374 228.455,66.0881 228.035,66.4976 C227.744,66.7807 227.435,67.0441 227.109,67.2867 C226.889,67.451 226.662,67.6057 226.429,67.751 C226.249,67.8631 226.065,67.9697 225.879,68.0706 C224.543,68.7933 223.065,69.2244 221.569,69.4592 C221.319,69.4984 221.068,69.5323 220.816,69.5611 C220.486,69.5991 220.154,69.6284 219.822,69.6499 C219.397,69.6775 218.972,69.6924 218.546,69.6964 C217.984,69.7017 217.422,69.6871 216.861,69.6581 C216.522,69.6396 216.183,69.6208 215.844,69.6027 C210.896,69.3423 205.943,69.1744 200.99,69.0605 C198.726,69.0084 196.462,68.968 194.198,68.9389 C192.482,68.9169 190.766,68.9004 189.049,68.8951 L188.882,68.8947 C188.841,68.8912 188.799,68.8911 188.759,68.8842 C188.677,68.8704 188.598,68.8431 188.525,68.8035 C188.488,68.783 188.452,68.7593 188.419,68.7328 L188.419,94.2726 C188.362,94.5577 188.36,94.5613 188.199,94.8029 L187.956,94.9655 L187.669,95.0226 L187.382,94.9655 L187.138,94.8029 L186.976,94.5596 L186.919,94.2726 L186.919,23.8961 C186.934,23.8172 186.946,23.7599 186.958,23.7131 L186.958,23.7131 Z M84.0866,39.8148 L84.2486,18.1362 L84.3079,17.8496 L84.4723,17.6075 L84.7168,17.4468 L85.0042,17.3918 C85.0998,17.4116 85.1953,17.4313 85.2908,17.451 L85.5329,17.6154 L85.6937,17.86 L85.7486,18.1474 L85.5866,39.8148 L138.316,39.8148 L138.212,18.3489 L138.268,18.0616 L138.429,17.8175 L138.672,17.6538 L138.959,17.5953 C139.054,17.6138 139.15,17.6324 139.246,17.651 C139.488,17.8113 139.491,17.814 139.654,18.0549 L139.712,18.3417 L139.816,39.8148 L154.003,39.8148 L154.29,39.8718 L154.533,40.0344 L154.696,40.2777 L154.753,40.5648 L154.696,40.8518 L154.533,41.0951 L154.29,41.2577 L154.003,41.3148 L139.823,41.3148 L139.981,74.237 L139.973,74.3479 C139.968,74.3857 139.964,74.4235 139.96,74.4614 C139.954,74.5119 139.95,74.5623 139.946,74.6129 C139.91,75.0745 139.909,75.5385 139.937,76.0006 C139.974,76.6011 140.059,77.199 140.193,77.7855 C140.384,78.6206 140.677,79.4329 141.077,80.1912 C141.354,80.7168 141.682,81.2154 142.055,81.6775 C142.314,81.9979 142.595,82.3005 142.894,82.5835 C143.112,82.7889 143.339,82.9839 143.574,83.1684 C143.743,83.3013 143.917,83.4286 144.095,83.5505 C145.449,84.481 147.005,85.0847 148.596,85.4698 C148.881,85.5386 149.167,85.6005 149.454,85.6562 C149.836,85.7302 150.22,85.7931 150.605,85.8463 C151.104,85.9151 151.605,85.9675 152.107,86.0059 C152.748,86.055 153.39,86.0813 154.033,86.0887 C154.934,86.099 155.835,86.0752 156.733,86.0078 C158.09,85.9061 159.444,85.7056 160.757,85.3475 C160.97,85.2894 161.182,85.2272 161.392,85.1604 C162.749,84.7297 164.058,84.1057 165.174,83.2132 C165.352,83.0706 165.525,82.9215 165.692,82.7658 C165.913,82.5598 166.123,82.3423 166.321,82.1141 C166.611,81.7801 166.874,81.4233 167.108,81.0475 C167.424,80.5374 167.685,79.9932 167.888,79.4283 C168.154,78.6875 168.322,77.9125 168.401,77.1296 C168.451,76.6277 168.466,76.1219 168.443,75.618 C168.434,75.4386 168.421,75.2594 168.402,75.0808 C168.388,74.9468 168.371,74.8128 168.347,74.6802 L168.346,74.6746 L168.349,74.382 L168.463,74.1125 L168.671,73.9073 L168.943,73.7975 L169.235,73.7998 L169.505,73.914 L169.71,74.1226 L169.82,74.3938 C169.845,74.5283 169.864,74.6643 169.88,74.8002 C169.903,74.9905 169.92,75.1816 169.931,75.373 C169.967,75.9439 169.959,76.5176 169.911,77.0876 C169.836,77.9771 169.662,78.8593 169.379,79.7064 C169.154,80.3806 168.86,81.0322 168.499,81.6446 C168.12,82.2884 167.667,82.8879 167.152,83.4297 C166.636,83.9731 166.059,84.4574 165.441,84.8802 C164.437,85.566 163.329,86.0884 162.18,86.4801 C161.406,86.7442 160.612,86.9498 159.81,87.1091 C158.951,87.2798 158.082,87.3973 157.209,87.4741 C156.249,87.5586 155.284,87.5936 154.319,87.5908 C153.636,87.5888 152.953,87.5671 152.271,87.5215 C151.76,87.4873 151.251,87.4398 150.743,87.3771 C150.351,87.3285 149.959,87.2706 149.57,87.2026 C149.278,87.1518 148.988,87.0952 148.699,87.0324 C147.118,86.6885 145.567,86.1562 144.156,85.3558 C143.946,85.237 143.74,85.1123 143.538,84.9818 C143.327,84.8456 143.12,84.7028 142.918,84.5536 C142.607,84.324 142.307,84.079 142.021,83.8189 C141.626,83.4601 141.257,83.0724 140.92,82.6592 C140.453,82.0875 140.047,81.4668 139.708,80.8111 C139.235,79.8951 138.895,78.913 138.683,77.9046 C138.518,77.1159 138.429,76.3105 138.418,75.5046 C138.415,75.25 138.42,74.9953 138.434,74.7411 C138.444,74.5422 138.46,74.3434 138.487,74.146 L138.481,74.1885 L138.323,41.3148 L85.5754,41.3148 L85.3503,71.4279 C85.3489,71.4528 85.3476,71.4778 85.346,71.5027 C85.3452,71.5154 85.3434,71.5281 85.3421,71.5408 C85.3383,71.5815 85.3348,71.6222 85.3315,71.663 C85.3263,71.7309 85.3217,71.7988 85.3174,71.8668 C85.2906,72.3299 85.2846,72.7941 85.2958,73.2578 C85.3067,73.7128 85.3338,74.1675 85.3771,74.6206 C85.4123,74.9889 85.4581,75.3563 85.5151,75.7219 C85.5588,76.003 85.6092,76.2832 85.6664,76.5619 C86.0358,78.3613 86.6955,80.1185 87.7342,81.6416 C87.9193,81.9131 88.1159,82.1767 88.324,82.4311 C88.6176,82.7898 88.9339,83.1299 89.271,83.4483 C89.7512,83.9018 90.2738,84.3102 90.8285,84.6687 C91.1334,84.8658 91.4478,85.0479 91.77,85.2151 C91.9948,85.3318 92.2235,85.4411 92.4552,85.5435 C94.0679,86.2564 95.8173,86.6195 97.5693,86.7596 C97.8623,86.7831 98.1557,86.8002 98.4494,86.8116 C98.7884,86.8248 99.1277,86.8302 99.467,86.8291 C99.9552,86.8277 100.443,86.8141 100.931,86.7872 C101.304,86.7666 101.677,86.7381 102.05,86.7009 C102.323,86.6735 102.596,86.6415 102.868,86.6044 C104.81,86.3403 106.73,85.8172 108.476,84.9144 C108.751,84.7719 109.022,84.62 109.287,84.4588 C109.663,84.2302 110.027,83.9826 110.377,83.7164 C110.838,83.3659 111.274,82.9829 111.681,82.5703 C112.257,81.9854 112.772,81.3413 113.219,80.6524 C113.814,79.7357 114.287,78.7418 114.637,77.7073 C114.882,76.9844 115.068,76.2411 115.19,75.4877 C115.23,75.2366 115.264,74.9842 115.288,74.731 C115.304,74.5629 115.317,74.3942 115.321,74.2253 L115.321,74.2191 C115.382,73.9348 115.383,73.9312 115.548,73.6917 L115.793,73.5323 C115.889,73.5146 115.984,73.4778 116.081,73.4791 C116.35,73.4826 116.4,73.5623 116.609,73.7057 L116.768,73.9511 C116.786,74.0471 116.804,74.1428 116.821,74.2389 C116.822,74.2432 116.821,74.2477 116.821,74.252 C116.821,74.264 116.821,74.276 116.82,74.288 C116.82,74.3059 116.819,74.3238 116.818,74.3418 C116.815,74.4321 116.81,74.5224 116.803,74.6125 C116.783,74.9006 116.75,75.1878 116.709,75.4737 C116.57,76.4482 116.331,77.4093 116.006,78.3383 C115.654,79.3444 115.196,80.3144 114.635,81.2208 C114.029,82.1988 113.302,83.1004 112.472,83.8966 C111.649,84.6856 110.726,85.3678 109.737,85.9349 C108.318,86.7492 106.769,87.3227 105.179,87.7006 C103.629,88.0692 102.038,88.2546 100.446,88.3106 C99.5715,88.3414 98.6951,88.3367 97.8216,88.2815 C96.4248,88.1932 95.0323,87.9771 93.6877,87.584 C93.3681,87.4906 93.0514,87.3873 92.7386,87.2733 C92.393,87.1474 92.0521,87.0087 91.7172,86.8566 C91.3336,86.6824 90.958,86.4906 90.5925,86.2809 C90.1114,86.0048 89.6481,85.6977 89.2074,85.3607 C88.6274,84.917 88.0873,84.4214 87.5954,83.8816 C86.9013,83.1198 86.3048,82.2714 85.8103,81.3676 C85.0262,79.9346 84.4981,78.3699 84.1782,76.7705 C83.9536,75.6475 83.8289,74.5041 83.7979,73.3595 C83.7872,72.9649 83.7876,72.57 83.8013,72.1756 C83.8108,71.9021 83.8257,71.6285 83.8532,71.3562 L83.8507,71.3792 L84.0754,41.3148 L77.6876,41.3148 C77.4025,41.2581 77.3989,41.2566 77.1572,41.0951 L76.9947,40.8518 L76.9376,40.5648 L76.9947,40.2777 L77.1572,40.0344 L77.4006,39.8718 L77.6876,39.8148 L84.0866,39.8148 Z M20.1895,46.6264 L22.8671,83.9864 L22.8306,84.2768 L22.6859,84.5311 L22.4548,84.7107 L22.1726,84.7881 L21.8822,84.7517 C21.6296,84.6079 21.6267,84.6053 21.4484,84.3758 L21.3709,84.0936 L16.7241,19.2564 L16.7605,18.9661 L16.9053,18.7118 L17.1364,18.5322 L17.4186,18.4547 C17.5153,18.4669 17.6121,18.479 17.7089,18.4912 C17.9615,18.635 17.9645,18.6375 18.1428,18.867 L18.2203,19.1492 L20.0819,45.1243 L48.1905,40.5744 C48.2647,40.5661 48.2646,40.5661 48.3394,40.5653 C48.3511,40.5658 48.3629,40.5662 48.3746,40.5667 C48.7595,40.5851 49.1434,40.6294 49.5245,40.6863 C50.0836,40.7697 50.6383,40.8844 51.185,41.0285 C52.7214,41.4334 54.2062,42.0733 55.5093,42.9883 C56.1712,43.4531 56.7836,43.9885 57.3257,44.5891 C57.943,45.2731 58.4661,46.0403 58.8798,46.8635 C59.4035,47.9056 59.7495,49.0305 59.9432,50.1792 C60.0291,50.6885 60.0857,51.2025 60.1167,51.718 C60.1339,52.0033 60.1427,52.289 60.1455,52.5748 C60.1468,52.7951 60.1461,53.0154 60.1463,53.2358 C60.1466,53.5987 60.1473,53.9616 60.148,54.3246 C60.1596,58.7082 60.1972,63.0918 60.2426,67.4752 C60.2929,72.3344 60.3549,77.1936 60.4231,82.0526 L60.4381,83.1001 L60.4512,83.9897 L60.4445,84.1016 C60.4367,84.1382 60.4316,84.1754 60.4212,84.2113 C60.3896,84.3191 60.3337,84.4193 60.2586,84.5028 C60.2084,84.5584 60.1502,84.6063 60.0858,84.6447 C60.0215,84.6831 59.9518,84.7117 59.879,84.7295 C59.6963,84.774 59.5001,84.7474 59.3359,84.6558 C59.2705,84.6193 59.2109,84.5732 59.1591,84.519 C59.0555,84.4105 58.9859,84.2715 58.9614,84.1235 C58.9553,84.0866 58.9547,84.0491 58.9514,84.0119 C58.935,82.9016 58.9193,81.7914 58.9037,80.6812 C58.8549,77.1375 58.8098,73.5937 58.7703,70.0499 C58.7342,66.8182 58.7022,63.5864 58.6787,60.3545 C58.6669,58.7245 58.6572,57.0944 58.6514,55.4643 C58.6494,54.9017 58.6478,54.3391 58.6469,53.7765 C58.6467,53.5967 58.6464,53.4168 58.6463,53.237 C58.6461,53.0202 58.6469,52.8034 58.6456,52.5866 C58.6448,52.5052 58.6435,52.4238 58.6417,52.3425 C58.6254,51.7013 58.5708,51.0613 58.4641,50.4286 C58.3049,49.4844 58.0302,48.5578 57.6162,47.6932 C57.2679,46.9659 56.8218,46.2866 56.2894,45.6809 C55.8197,45.1465 55.2853,44.6706 54.7063,44.2576 C54.1384,43.8527 53.5286,43.5081 52.8941,43.2192 C52.2203,42.9123 51.5186,42.6676 50.8028,42.479 C50.3881,42.3697 49.9684,42.2792 49.5455,42.2083 C49.1624,42.1439 48.7765,42.095 48.3888,42.0695 L48.3536,42.0675 L20.1895,46.6264 Z M496.723,78.2288 C496.617,78.3604 496.507,78.4882 496.392,78.612 C496.157,78.866 495.904,79.1029 495.635,79.3215 C495.448,79.4737 495.254,79.6171 495.053,79.7515 C494.9,79.8545 494.743,79.9523 494.583,80.0449 C493.435,80.7085 492.147,81.0989 490.844,81.3116 C490.615,81.3488 490.386,81.3806 490.156,81.4075 C489.844,81.4441 489.53,81.4716 489.216,81.4911 C488.841,81.5143 488.466,81.5251 488.091,81.5281 C487.458,81.5298 486.825,81.5283 486.192,81.5281 C481.691,81.5252 477.191,81.5176 472.691,81.5003 L471.787,81.4966 L471.476,81.4951 L471.407,81.4916 C471.287,81.48 471.166,81.4639 471.047,81.4459 C470.86,81.4177 470.674,81.384 470.488,81.346 C470.025,81.2509 469.568,81.1286 469.118,80.9831 C468.839,80.8929 468.564,80.7922 468.293,80.6822 C467.674,80.4314 467.076,80.1293 466.512,79.7721 C465.895,79.3814 465.32,78.9243 464.809,78.4022 C464.611,78.1989 464.422,77.986 464.244,77.7641 C463.948,77.3945 463.683,77.0002 463.453,76.5863 C463.233,76.19 463.044,75.7761 462.889,75.3503 C462.71,74.8625 462.575,74.3595 462.479,73.8491 C462.391,73.3849 462.336,72.9148 462.309,72.4432 C462.297,72.2255 462.291,72.0075 462.289,71.7894 C462.289,71.4526 462.29,71.1158 462.291,70.7789 C462.293,70.1056 462.299,69.4322 462.316,68.7591 C462.328,68.2957 462.346,67.8325 462.374,67.3698 C462.393,67.0371 462.418,66.7047 462.449,66.3729 C462.474,66.1054 462.504,65.8383 462.539,65.572 C462.567,65.3644 462.598,65.1573 462.633,64.9509 C462.825,63.816 463.14,62.6883 463.696,61.6747 C463.776,61.5295 463.86,61.3868 463.95,61.2473 C464.091,61.0277 464.243,60.816 464.408,60.6137 C464.652,60.3147 464.921,60.037 465.212,59.7842 C465.653,59.4009 466.143,59.0763 466.661,58.8073 C467.542,58.3503 468.499,58.053 469.469,57.853 C470.004,57.7426 470.545,57.6619 471.089,57.6028 C471.738,57.5321 472.391,57.4923 473.043,57.4739 C473.294,57.4669 473.544,57.4636 473.795,57.4622 C474.088,57.4616 474.382,57.4613 474.675,57.4602 C475.505,57.4557 476.334,57.4464 477.164,57.4309 C479.875,57.3804 482.584,57.2728 485.292,57.1217 C486.707,57.0428 488.121,56.9517 489.535,56.8489 C491.008,56.7417 492.48,56.6217 493.951,56.4859 L493.994,56.4819 C493.93,56.0374 493.867,55.5928 493.804,55.1482 C493.74,54.6952 493.676,54.2421 493.613,53.7889 C493.354,51.9142 493.103,50.0383 492.873,48.1598 C492.723,46.9458 492.582,45.7308 492.454,44.5143 C492.387,43.873 492.324,43.2313 492.266,42.5891 C492.243,42.3328 492.221,42.0765 492.199,41.82 C492.188,41.6789 492.177,41.5378 492.165,41.3968 C492.156,41.3016 492.147,41.2064 492.137,41.1112 C492.111,40.8733 492.081,40.636 492.045,40.3994 C492.016,40.2093 491.984,40.0197 491.947,39.8309 C491.697,38.5386 491.259,37.2686 490.538,36.1601 C490.162,35.5812 489.71,35.0517 489.19,34.5968 C488.68,34.1507 488.108,33.7785 487.497,33.4865 C486.778,33.1428 486.008,32.9095 485.222,32.7774 C484.876,32.7191 484.525,32.6804 484.174,32.6628 C484.036,32.6558 483.898,32.6522 483.759,32.6525 C483.644,32.6528 483.528,32.6557 483.413,32.6635 L483.393,32.6652 L483.297,32.6668 C483.181,32.6612 483.065,32.6563 482.95,32.6514 C481.704,32.6017 480.458,32.5699 479.212,32.5434 C477.563,32.5082 475.914,32.4847 474.265,32.4676 C472.586,32.4502 470.906,32.4399 469.226,32.4347 C468.695,32.433 468.163,32.4319 467.632,32.4312 C467.213,32.4307 466.795,32.4289 466.377,32.431 C466.287,32.4318 466.197,32.433 466.107,32.4347 C465.805,32.4415 465.504,32.4542 465.202,32.4755 C464.959,32.4927 464.716,32.5152 464.474,32.5434 C464.282,32.5658 464.09,32.5919 463.899,32.6218 C462.649,32.8182 461.412,33.186 460.308,33.8144 C460.133,33.9139 459.962,34.0197 459.795,34.1319 C459.543,34.3013 459.301,34.4856 459.071,34.6839 C458.766,34.946 458.483,35.233 458.226,35.5412 C457.847,35.9945 457.524,36.4932 457.259,37.0209 C456.89,37.7546 456.632,38.5418 456.471,39.3463 C456.357,39.9176 456.29,40.4989 456.27,41.0812 C456.263,41.289 456.262,41.4971 456.269,41.7049 C456.273,41.8346 456.279,41.9644 456.292,42.0935 L456.292,42.0965 C456.293,42.1358 456.298,42.175 456.296,42.2142 C456.288,42.3716 456.231,42.5248 456.132,42.6479 C456.083,42.7093 456.025,42.7627 455.959,42.8059 C455.827,42.8925 455.669,42.9359 455.512,42.9286 C455.433,42.9249 455.356,42.9089 455.282,42.8811 C455.208,42.8534 455.139,42.8142 455.078,42.765 C455.017,42.7159 454.963,42.6573 454.92,42.5916 C454.877,42.5258 454.844,42.4537 454.823,42.3778 C454.805,42.3107 454.799,42.2443 454.793,42.1758 C454.788,42.1187 454.784,42.0616 454.781,42.0044 C454.76,41.6515 454.76,41.2973 454.774,40.9442 C454.805,40.2056 454.901,39.4691 455.065,38.7483 C455.271,37.8452 455.586,36.9654 456.022,36.1473 C456.344,35.5418 456.733,34.9714 457.182,34.4533 C457.512,34.0739 457.873,33.7227 458.262,33.4044 C458.559,33.1613 458.871,32.9372 459.195,32.7327 C459.442,32.5772 459.696,32.4331 459.956,32.3002 C460.137,32.2078 460.32,32.1208 460.506,32.0391 C461.849,31.4481 463.302,31.1367 464.76,31.0062 C465.009,30.9839 465.259,30.9668 465.509,30.9546 C465.795,30.9406 466.081,30.9335 466.367,30.9311 C466.604,30.9299 466.842,30.9307 467.079,30.9308 C470.227,30.9336 473.375,30.9496 476.522,30.9954 C477.754,31.0134 478.986,31.0359 480.218,31.066 C481.192,31.0898 482.167,31.1173 483.141,31.1581 C483.198,31.1606 483.255,31.1632 483.312,31.1658 L483.32,31.1662 L483.302,31.1677 C483.352,31.1642 483.402,31.1615 483.452,31.1591 C483.505,31.157 483.557,31.1554 483.61,31.1542 C484.033,31.1467 484.457,31.1687 484.878,31.2154 C485.406,31.2741 485.93,31.3718 486.444,31.509 C487.241,31.722 488.013,32.0311 488.731,32.4397 C489.311,32.7704 489.855,33.166 490.346,33.6189 C490.634,33.8841 490.903,34.1685 491.154,34.4694 C491.348,34.7035 491.531,34.9475 491.701,35.1997 C492.109,35.8028 492.446,36.4522 492.718,37.1272 C492.976,37.7684 493.176,38.4325 493.328,39.1068 C493.456,39.6753 493.549,40.2514 493.615,40.8304 C493.657,41.2013 493.684,41.5735 493.715,41.9454 L493.76,42.4545 C493.957,44.6194 494.209,46.7791 494.481,48.9358 C494.801,51.4772 495.153,54.0146 495.519,56.5497 L495.522,56.5519 C495.598,56.6238 495.622,56.6384 495.679,56.7267 C495.764,56.8592 495.806,57.0175 495.797,57.1749 C495.793,57.2535 495.776,57.3309 495.748,57.4042 C495.715,57.4892 495.707,57.4955 495.666,57.5553 C495.735,58.0313 495.806,58.5072 495.876,58.9831 C496.006,59.8557 496.137,60.7282 496.27,61.6005 C496.622,63.9097 496.985,66.2174 497.355,68.5237 C497.648,70.3434 497.946,72.1625 498.252,73.9799 L498.262,74.0986 C498.263,74.1913 498.259,74.284 498.253,74.3765 C498.243,74.5276 498.226,74.6782 498.205,74.828 C498.148,75.221 498.056,75.609 497.933,75.9866 C497.837,76.2813 497.721,76.5698 497.588,76.8496 L511.333,76.8496 C511.354,76.8505 511.375,76.8514 511.397,76.8523 C511.453,76.8595 511.467,76.8596 511.522,76.8738 C511.666,76.9114 511.798,76.9923 511.896,77.1041 C511.938,77.1519 511.974,77.2051 512.003,77.262 C512.099,77.453 512.109,77.6808 512.029,77.8793 C511.997,77.9581 511.952,78.0314 511.896,78.0951 C511.84,78.1589 511.773,78.213 511.699,78.2544 C511.625,78.2958 511.543,78.3245 511.46,78.3388 C511.404,78.3484 511.389,78.3472 511.333,78.3496 L497.131,78.3496 C497.074,78.3472 497.06,78.3484 497.004,78.3388 C496.92,78.3245 496.839,78.2958 496.765,78.2544 C496.751,78.2463 496.736,78.2378 496.723,78.2288 L496.723,78.2288 Z M261.923,26.4458 C265.482,26.449 269.041,26.4674 272.599,26.5219 C273.977,26.543 275.356,26.5693 276.734,26.6053 C277.293,26.6198 277.853,26.636 278.412,26.6548 C278.82,26.6685 279.228,26.6835 279.636,26.7022 L279.649,26.7028 L279.633,26.7041 C279.681,26.7008 279.681,26.7009 279.729,26.6981 C280.176,26.6766 280.624,26.6903 281.069,26.7291 C281.674,26.7819 282.276,26.8822 282.865,27.0295 C283.744,27.2493 284.597,27.5754 285.392,28.0123 C286.021,28.3585 286.612,28.7739 287.148,29.2516 C287.605,29.6582 288.021,30.109 288.393,30.5946 C288.815,31.1465 289.179,31.7424 289.485,32.3661 C289.935,33.2844 290.262,34.2604 290.49,35.2567 C290.636,35.8937 290.742,36.5396 290.815,37.1889 C290.835,37.3685 290.853,37.5484 290.869,37.7284 C290.88,37.8631 290.89,37.9978 290.902,38.1325 C290.913,38.2687 290.924,38.4049 290.936,38.5411 C290.948,38.6807 290.96,38.8203 290.973,38.9598 C291.189,41.3233 291.463,43.6811 291.76,46.0356 C292.083,48.5927 292.435,51.146 292.8,53.6973 L292.853,54.067 L292.898,54.3767 L292.945,54.412 C293.021,54.4912 293.046,54.5075 293.101,54.6039 C293.203,54.7851 293.225,55.0053 293.162,55.2034 C293.128,55.308 293.107,55.3282 293.05,55.4198 C293.127,55.9473 293.205,56.4748 293.283,57.0022 C293.716,59.9099 294.165,62.8152 294.626,65.7183 C295,68.0681 295.382,70.4166 295.774,72.7634 L295.83,73.096 L295.876,73.3703 L295.887,73.489 C295.888,73.6157 295.881,73.7424 295.871,73.8686 C295.86,74.0044 295.844,74.1398 295.824,74.2746 C295.763,74.6997 295.663,75.1193 295.53,75.5276 C295.34,76.1097 295.082,76.6692 294.76,77.19 C294.511,77.5924 294.225,77.9713 293.907,78.321 C293.656,78.5965 293.385,78.8538 293.098,79.0914 C292.898,79.2571 292.69,79.4133 292.475,79.5598 C292.311,79.6721 292.143,79.7787 291.971,79.8798 C290.71,80.6236 289.287,81.0579 287.848,81.2926 C287.6,81.3331 287.351,81.3677 287.101,81.3969 C286.761,81.4367 286.42,81.4666 286.078,81.4878 C285.67,81.5131 285.262,81.5248 284.854,81.5281 C284.484,81.5291 284.115,81.5284 283.745,81.5283 C283.109,81.5282 282.474,81.5279 281.839,81.5275 C277.242,81.5242 272.645,81.5154 268.048,81.4978 L267.062,81.4936 L266.722,81.4921 L266.654,81.4887 C266.524,81.4763 266.393,81.4587 266.264,81.4391 C266.061,81.4085 265.859,81.3719 265.658,81.3307 C265.172,81.231 264.691,81.1043 264.219,80.9526 C262.719,80.4706 261.287,79.7307 260.091,78.6971 C259.904,78.5353 259.723,78.3665 259.548,78.1909 C259.313,77.9546 259.091,77.7059 258.883,77.4459 C258.562,77.0456 258.275,76.6185 258.026,76.1702 C257.721,75.6219 257.473,75.0423 257.282,74.4447 C257.143,74.0067 257.033,73.5592 256.952,73.1068 C256.867,72.6346 256.813,72.1569 256.786,71.6779 C256.773,71.4415 256.766,71.2048 256.765,70.968 C256.764,70.6006 256.765,70.2331 256.766,69.8657 C256.769,69.1314 256.775,68.397 256.794,67.6629 C256.806,67.1888 256.824,66.7148 256.851,66.2413 C256.873,65.8482 256.902,65.4554 256.939,65.0634 C256.966,64.7724 256.999,64.4817 257.037,64.1919 C257.067,63.9662 257.1,63.741 257.138,63.5165 C257.351,62.2604 257.702,61.0114 258.329,59.8952 C258.429,59.7167 258.536,59.542 258.65,59.3719 C258.8,59.1478 258.962,58.9318 259.136,58.7255 C259.405,58.4057 259.701,58.1096 260.021,57.8406 C260.519,57.422 261.071,57.0712 261.654,56.7828 C262.598,56.3152 263.617,56.0104 264.649,55.8049 C265.197,55.6956 265.751,55.6143 266.307,55.5538 C266.969,55.4817 267.635,55.4391 268.302,55.4176 C268.572,55.4089 268.843,55.4042 269.114,55.4016 C269.48,55.3994 269.847,55.4 270.214,55.3986 C271.029,55.3943 271.845,55.3856 272.661,55.3715 C275.787,55.3174 278.912,55.1931 282.034,55.0162 C283.502,54.933 284.969,54.8379 286.436,54.7313 C288.044,54.6143 289.651,54.4834 291.256,54.3351 L291.375,54.3239 C291.302,53.8152 291.229,53.3062 291.157,52.7973 C291.087,52.303 291.018,51.8086 290.949,51.3141 C290.682,49.3844 290.424,47.4535 290.184,45.5203 C290.005,44.0798 289.836,42.6381 289.685,41.1945 C289.611,40.495 289.542,39.795 289.479,39.0945 C289.454,38.8148 289.43,38.5351 289.407,38.2553 C289.394,38.1014 289.382,37.9474 289.369,37.7935 C289.361,37.7099 289.353,37.6263 289.345,37.5427 C289.319,37.3005 289.29,37.0587 289.255,36.8176 C289.225,36.607 289.19,36.3971 289.151,36.1879 C288.905,34.8628 288.482,33.5577 287.797,32.3922 C287.675,32.1849 287.545,31.9823 287.406,31.7855 C287.233,31.5386 287.046,31.3007 286.847,31.0739 C286.57,30.7579 286.268,30.4634 285.945,30.1947 C285.501,29.8262 285.018,29.5066 284.506,29.2397 C283.797,28.8691 283.035,28.6005 282.254,28.4264 C281.773,28.319 281.283,28.2471 280.791,28.2117 C280.452,28.1873 280.11,28.1782 279.77,28.1982 L279.745,28.2 L279.721,28.2019 L279.626,28.2034 C279.499,28.1974 279.373,28.192 279.247,28.1867 C279.042,28.1785 278.838,28.1708 278.633,28.1634 C277.282,28.1167 275.931,28.0834 274.579,28.0567 C273.531,28.036 272.483,28.0193 271.436,28.0055 C268.06,27.9611 264.683,27.9466 261.307,27.9456 C261.208,27.9457 261.108,27.9464 261.009,27.9476 C260.675,27.9527 260.341,27.9645 260.008,27.9856 C259.717,28.004 259.426,28.0292 259.136,28.0618 C258.925,28.0856 258.714,28.1134 258.504,28.1456 C257.109,28.3588 255.731,28.7648 254.5,29.4648 C254.308,29.5741 254.119,29.6905 253.936,29.8138 C253.658,30.0003 253.392,30.203 253.139,30.4212 C252.794,30.718 252.475,31.0436 252.185,31.3938 C251.778,31.8849 251.431,32.4235 251.145,32.9929 C250.739,33.7992 250.456,34.664 250.279,35.548 C250.154,36.1753 250.08,36.8133 250.059,37.4526 C250.051,37.6809 250.05,37.9095 250.057,38.1378 C250.061,38.2809 250.068,38.4243 250.082,38.5668 L250.083,38.5706 C250.084,38.6119 250.088,38.6532 250.086,38.6944 C250.077,38.8601 250.012,39.0205 249.903,39.1457 C249.849,39.2082 249.784,39.2613 249.713,39.3028 C249.641,39.3442 249.563,39.3735 249.481,39.3894 C249.277,39.4294 249.061,39.3811 248.893,39.2579 C248.827,39.2089 248.768,39.1491 248.721,39.081 C248.674,39.013 248.638,38.9375 248.616,38.8578 C248.596,38.787 248.589,38.7164 248.583,38.6439 C248.578,38.5821 248.573,38.5203 248.57,38.4584 C248.545,38.0436 248.547,37.6272 248.567,37.2123 C248.604,36.4426 248.708,35.6754 248.879,34.9241 C249.109,33.9178 249.463,32.9382 249.955,32.0304 C250.304,31.3877 250.722,30.7826 251.204,30.2325 C251.553,29.8344 251.934,29.4653 252.344,29.1298 C252.666,28.8663 253.004,28.6234 253.356,28.4018 C253.624,28.2332 253.899,28.0769 254.181,27.9328 C254.377,27.8326 254.576,27.7382 254.777,27.6496 C256.236,27.0076 257.815,26.6696 259.398,26.5278 C259.669,26.5035 259.941,26.485 260.214,26.4717 C260.551,26.4552 260.889,26.4474 261.227,26.4457 C261.459,26.4453 261.691,26.4457 261.923,26.4458 L261.923,26.4458 Z M369.59,55.4045 C369.944,55.4074 370.297,55.4176 370.65,55.4395 C370.946,55.4579 371.243,55.4839 371.538,55.5185 C371.756,55.544 371.972,55.5741 372.188,55.6092 C373.408,55.8077 374.611,56.1695 375.693,56.7729 C375.849,56.8597 376.001,56.9512 376.151,57.0478 C376.346,57.1739 376.536,57.3084 376.72,57.4513 C376.983,57.6566 377.233,57.8792 377.466,58.1182 C377.774,58.4336 378.052,58.7773 378.296,59.1442 C378.599,59.5986 378.847,60.0886 379.037,60.6005 C379.166,60.9516 379.269,61.3131 379.34,61.6807 C379.385,61.9183 379.419,62.1593 379.43,62.4012 L379.431,62.4239 L379.43,62.494 C379.412,62.8007 379.395,63.1074 379.377,63.4141 C379.292,64.9729 379.217,66.5323 379.155,68.0922 C379.104,69.3731 379.062,70.6544 379.033,71.9361 C379.02,72.5329 379.01,73.1298 379.004,73.7267 C379.002,73.9736 379,74.2204 379,74.4673 C379,74.5711 379,74.675 378.999,74.7788 C378.998,74.8252 378.997,74.8716 378.995,74.918 C378.978,75.3265 378.915,75.7324 378.796,76.124 C378.714,76.3929 378.607,76.6541 378.477,76.9032 C378.383,77.0823 378.278,77.2551 378.161,77.4204 C378.07,77.5505 377.972,77.6761 377.868,77.7967 C377.245,78.5215 376.429,79.0569 375.567,79.4562 C375.428,79.5206 375.287,79.5816 375.145,79.6395 C374.952,79.7184 374.756,79.7914 374.559,79.8594 C374.313,79.9441 374.064,80.0207 373.813,80.0905 C373.488,80.1811 373.159,80.2598 372.828,80.3285 C372.391,80.4192 371.951,80.4923 371.509,80.55 C371.162,80.5953 370.813,80.6312 370.464,80.657 C370.203,80.6763 369.943,80.6909 369.682,80.6949 C368.114,80.6881 366.546,80.682 364.978,80.676 C360.878,80.6612 356.778,80.6481 352.678,80.6407 C351.442,80.6385 350.205,80.6368 348.969,80.6359 C348.345,80.6355 347.722,80.6368 347.098,80.6349 C347.025,80.6343 346.952,80.6334 346.879,80.6324 C346.631,80.6273 346.384,80.6187 346.138,80.6037 C345.301,80.5532 344.465,80.4388 343.653,80.229 C342.983,80.0558 342.327,79.8168 341.714,79.4934 C341.34,79.296 340.982,79.0673 340.649,78.8062 C340.288,78.523 339.956,78.2017 339.665,77.8471 C339.298,77.401 338.995,76.903 338.765,76.3732 C338.501,75.7652 338.332,75.1171 338.254,74.4593 C338.223,74.1959 338.206,73.9307 338.204,73.6654 C338.204,73.4653 338.211,73.2649 338.233,73.0658 L338.226,73.1223 C338.181,72.6517 338.136,72.1812 338.09,71.7107 C338.027,71.061 337.963,70.4113 337.899,69.7616 C337.753,68.3026 337.605,66.8439 337.449,65.3859 C337.408,64.9975 337.366,64.609 337.323,64.2207 C337.294,63.9595 337.263,63.6985 337.235,63.4372 C337.23,63.3842 337.23,63.3843 337.225,63.3314 C337.218,63.227 337.213,63.1226 337.212,63.0179 C337.211,62.7821 337.23,62.5461 337.269,62.3135 C337.306,62.09 337.362,61.8698 337.436,61.6555 C337.487,61.5066 337.546,61.3607 337.613,61.2183 C337.99,60.4164 338.597,59.7444 339.284,59.1946 C339.417,59.0879 339.554,58.985 339.693,58.8868 C339.851,58.7757 340.012,58.669 340.176,58.5673 C340.398,58.4293 340.626,58.2997 340.857,58.1777 C341.144,58.0262 341.438,57.8864 341.736,57.7572 C341.942,57.6679 342.15,57.5835 342.36,57.5053 C342.57,57.4272 342.781,57.3538 342.996,57.2889 L343.016,57.2831 C343.08,57.2673 343.08,57.2673 343.146,57.2573 C343.398,57.2304 343.651,57.2039 343.903,57.1776 C346.234,56.937 348.566,56.7125 350.9,56.504 C353.245,56.2946 355.592,56.1009 357.94,55.931 C359.927,55.7872 361.916,55.6597 363.906,55.5627 C365.393,55.4902 366.88,55.4339 368.368,55.4125 C368.666,55.4082 368.965,55.4059 369.263,55.4045 C369.372,55.4043 369.481,55.4042 369.59,55.4045 L369.59,55.4045 Z M291.395,55.8286 C290.024,55.9553 288.652,56.0693 287.279,56.1729 C285.863,56.2798 284.446,56.3757 283.028,56.4608 C279.674,56.6619 276.317,56.8038 272.958,56.8664 C272.138,56.8817 271.317,56.8921 270.496,56.8971 C270.083,56.8996 269.671,56.9 269.258,56.9008 C269.17,56.9013 269.082,56.902 268.993,56.9028 C268.779,56.9058 268.564,56.9099 268.35,56.9168 C267.722,56.9371 267.094,56.977 266.469,57.045 C265.957,57.1007 265.447,57.1753 264.942,57.276 C264.418,57.3804 263.899,57.5129 263.392,57.6851 C262.946,57.8368 262.51,58.0196 262.095,58.2427 C261.665,58.4738 261.258,58.7488 260.89,59.0713 C260.673,59.2624 260.47,59.4697 260.283,59.6913 C260.158,59.8399 260.041,59.995 259.931,60.1553 C259.861,60.2573 259.794,60.3616 259.731,60.4676 C259.233,61.2974 258.93,62.2297 258.73,63.1722 C258.694,63.3443 258.661,63.5173 258.63,63.6907 C258.59,63.9226 258.555,64.1553 258.524,64.3887 C258.481,64.7158 258.446,65.044 258.417,65.3727 C258.378,65.8093 258.351,66.2468 258.33,66.6846 C258.302,67.2796 258.287,67.8751 258.278,68.4706 C258.27,69.0057 258.266,69.5409 258.265,70.0761 C258.265,70.3879 258.263,70.6999 258.265,71.0117 C258.266,71.0773 258.267,71.1428 258.268,71.2084 C258.286,71.8823 258.357,72.5547 258.503,73.2134 C258.685,74.036 258.983,74.8331 259.406,75.5626 C259.597,75.8933 259.814,76.2095 260.053,76.5079 C260.215,76.7097 260.387,76.9034 260.568,77.0883 C260.7,77.2235 260.837,77.3542 260.978,77.4799 C261.881,78.2837 262.951,78.8853 264.078,79.3143 C264.276,79.3897 264.476,79.4597 264.678,79.5245 C265.077,79.6529 265.484,79.7612 265.894,79.8478 C266.177,79.9074 266.462,79.9578 266.749,79.9906 L266.764,79.9922 C268.848,80.002 270.932,80.0083 273.016,80.0136 C276.592,80.0228 280.169,80.0272 283.745,80.0283 C284.112,80.0283 284.479,80.0291 284.846,80.0281 C285.298,80.0245 285.75,80.0093 286.201,79.976 C286.543,79.9508 286.884,79.9158 287.223,79.8695 C287.475,79.8352 287.725,79.7946 287.975,79.7471 C288.151,79.7136 288.326,79.6765 288.501,79.6356 C289.702,79.3548 290.877,78.8903 291.871,78.1486 C292.022,78.0358 292.169,77.9168 292.31,77.7918 C292.493,77.6291 292.668,77.4561 292.832,77.2734 C293.064,77.0138 293.275,76.7346 293.46,76.4393 C293.712,76.0396 293.916,75.6107 294.07,75.1643 C294.172,74.8677 294.252,74.5634 294.308,74.2546 C294.35,74.0244 294.379,73.7913 294.386,73.5574 C294.388,73.4855 294.363,73.4156 294.351,73.3448 C294.332,73.2336 294.313,73.1223 294.295,73.0111 C294.238,72.6695 294.181,72.3278 294.124,71.9861 C293.251,66.7065 292.418,61.4202 291.637,56.126 L291.591,55.8102 C291.526,55.8163 291.461,55.8225 291.395,55.8286 L291.395,55.8286 Z M494.09,57.9795 C491.605,58.2088 489.116,58.3952 486.625,58.5465 C483.895,58.7124 481.162,58.8356 478.428,58.9037 C477.432,58.9285 476.435,58.946 475.439,58.955 C475.102,58.958 474.766,58.9601 474.429,58.9612 C474.179,58.9619 473.929,58.9614 473.679,58.9629 C473.599,58.9636 473.519,58.9646 473.438,58.9657 C472.642,58.9797 471.845,59.0217 471.053,59.1166 C470.595,59.1715 470.138,59.2438 469.687,59.3399 C469.219,59.4395 468.756,59.565 468.305,59.7265 C467.898,59.8723 467.502,60.048 467.126,60.2617 C466.763,60.4684 466.42,60.7114 466.11,60.9923 C465.93,61.1556 465.762,61.3313 465.607,61.518 C465.5,61.6461 465.4,61.7795 465.305,61.9171 C464.744,62.7367 464.42,63.6936 464.215,64.6589 C464.181,64.8159 464.151,64.9736 464.124,65.1317 C464.087,65.3433 464.055,65.5558 464.027,65.7688 C463.987,66.0676 463.955,66.3674 463.928,66.6677 C463.893,67.067 463.868,67.4671 463.849,67.8674 C463.824,68.4119 463.81,68.9569 463.801,69.5018 C463.794,69.9919 463.791,70.4819 463.79,70.972 C463.79,71.2576 463.788,71.5432 463.79,71.8287 C463.79,71.9033 463.792,71.9779 463.794,72.0525 C463.809,72.5619 463.858,73.0703 463.953,73.5713 C464.103,74.3695 464.369,75.1467 464.764,75.8574 C464.953,76.1979 465.171,76.5222 465.415,76.8261 C465.549,76.9944 465.692,77.1564 465.841,77.3117 C466.683,78.1864 467.735,78.8376 468.856,79.2921 C469.095,79.3887 469.336,79.4772 469.581,79.5564 C469.959,79.6785 470.342,79.7824 470.731,79.8643 C470.988,79.9184 471.247,79.9643 471.507,79.9941 L471.518,79.9953 C473.427,80.0042 475.335,80.01 477.243,80.0149 C480.82,80.024 484.396,80.0281 487.973,80.0284 C488.046,80.0282 488.118,80.0278 488.191,80.0273 C488.6,80.0216 489.009,80.0057 489.417,79.9731 C489.726,79.9484 490.035,79.9148 490.342,79.871 C490.569,79.8385 490.795,79.8004 491.02,79.7559 C491.205,79.7194 491.388,79.6787 491.571,79.6332 C492.609,79.3745 493.621,78.9611 494.483,78.3183 C494.606,78.226 494.727,78.1292 494.843,78.0278 C495.012,77.8808 495.172,77.7243 495.323,77.5589 C495.537,77.3241 495.731,77.0711 495.902,76.8034 C496.133,76.4405 496.322,76.0506 496.465,75.6445 C496.563,75.3661 496.639,75.0799 496.691,74.7895 C496.729,74.5831 496.755,74.374 496.762,74.1641 C496.711,73.861 496.66,73.5578 496.609,73.2546 C495.777,68.243 494.984,63.2246 494.244,58.1985 L494.21,57.9682 C494.17,57.9719 494.13,57.9757 494.09,57.9795 L494.09,57.9795 Z M316.198,11.7677 L316.447,11.9203 L316.62,12.1568 L316.688,12.4412 L319.386,78.7494 C319.341,79.0365 319.34,79.0402 319.188,79.2882 L318.952,79.4605 L318.667,79.5292 L318.378,79.4839 L318.128,79.3313 L317.956,79.0948 L317.887,78.8103 L315.19,12.5022 C315.235,12.2151 315.236,12.2114 315.388,11.9634 L315.624,11.7911 L315.909,11.7223 C316.005,11.7375 316.101,11.7526 316.198,11.7677 L316.198,11.7677 Z M369.268,56.9045 C367.417,56.9132 365.566,56.9811 363.718,57.0739 C361.736,57.1733 359.755,57.3021 357.776,57.4469 C355.369,57.6229 352.965,57.8236 350.561,58.0405 C348.285,58.246 346.009,58.466 343.735,58.7033 L343.499,58.7281 C343.458,58.7325 343.416,58.7357 343.375,58.7414 C343.367,58.7425 343.36,58.746 343.353,58.7483 C343.34,58.7523 343.328,58.7563 343.315,58.7603 C343.282,58.7709 343.254,58.7801 343.221,58.7912 C343.108,58.829 342.996,58.8692 342.884,58.9107 C342.55,59.035 342.222,59.1759 341.901,59.331 C341.664,59.4452 341.431,59.5678 341.204,59.6997 C341.023,59.8043 340.847,59.9147 340.674,60.032 C340.548,60.1177 340.425,60.2071 340.304,60.3005 C340.212,60.3719 340.121,60.4457 340.033,60.5221 C339.964,60.5826 339.895,60.6447 339.828,60.7085 C339.431,61.089 339.083,61.537 338.886,62.055 C338.861,62.1221 338.838,62.1902 338.818,62.2592 C338.783,62.3786 338.756,62.5004 338.739,62.6236 C338.717,62.7739 338.709,62.9261 338.713,63.0779 C338.715,63.1471 338.721,63.2161 338.727,63.285 C338.755,63.5419 338.785,63.7987 338.814,64.0554 C338.99,65.6554 339.155,67.2564 339.316,68.858 C339.456,70.2587 339.593,71.6597 339.727,73.0611 L339.73,73.1419 C339.728,73.1688 339.727,73.1957 339.725,73.2226 C339.723,73.2402 339.721,73.2579 339.719,73.2755 C339.716,73.3085 339.716,73.3143 339.713,73.3496 C339.71,73.3936 339.708,73.4377 339.707,73.4818 C339.692,73.9951 339.751,74.511 339.879,75.0083 C339.984,75.418 340.138,75.8154 340.343,76.1858 C340.488,76.4485 340.658,76.6972 340.851,76.9272 C340.975,77.0753 341.108,77.2155 341.249,77.3474 C341.353,77.4448 341.462,77.5376 341.575,77.6257 C342.331,78.2188 343.241,78.5878 344.17,78.812 C344.317,78.8476 344.466,78.8797 344.615,78.9086 C344.827,78.9497 345.041,78.9842 345.255,79.013 C345.517,79.0482 345.78,79.0748 346.043,79.0941 C346.397,79.1201 346.752,79.1318 347.107,79.1349 C347.431,79.1359 347.755,79.1353 348.079,79.1354 C348.987,79.1357 349.894,79.1367 350.802,79.1378 C355.033,79.144 359.265,79.1557 363.496,79.1706 C364.816,79.1753 366.136,79.1802 367.456,79.1856 C368.001,79.1878 368.546,79.19 369.09,79.1923 C369.29,79.1931 369.489,79.1977 369.689,79.1946 C369.746,79.1935 369.803,79.1916 369.86,79.1895 C370.401,79.1668 370.94,79.116 371.476,79.0409 C371.858,78.9873 372.238,78.9212 372.615,78.8405 C372.93,78.7729 373.243,78.6952 373.553,78.6051 C373.79,78.536 374.025,78.4598 374.257,78.3749 C374.441,78.3074 374.624,78.2344 374.803,78.1551 C374.936,78.0966 375.067,78.0346 375.196,77.9687 C375.295,77.9183 375.392,77.8657 375.489,77.8106 C376.103,77.4583 376.674,76.9958 377.047,76.3858 C377.111,76.2809 377.169,76.1721 377.22,76.0602 C377.29,75.9069 377.347,75.7478 377.39,75.585 C377.464,75.3074 377.497,75.0213 377.499,74.7344 C377.5,74.5614 377.5,74.3884 377.501,74.2154 C377.513,72.1537 377.574,70.0926 377.656,68.0326 C377.73,66.1828 377.82,64.3335 377.928,62.4854 L377.931,62.4423 C377.919,62.2538 377.889,62.066 377.85,61.8814 C377.787,61.5824 377.698,61.2889 377.585,61.0048 C377.433,60.6195 377.237,60.2515 377.003,59.9096 C376.822,59.6446 376.617,59.3957 376.393,59.1658 C376.241,59.0104 376.08,58.8637 375.912,58.7262 C375.783,58.6203 375.65,58.5199 375.512,58.4248 C374.653,57.8299 373.658,57.4534 372.643,57.2242 C372.491,57.19 372.339,57.159 372.186,57.131 C371.97,57.0913 371.752,57.0577 371.534,57.0294 C371.24,56.9913 370.945,56.9628 370.649,56.9426 C370.294,56.9184 369.938,56.9074 369.582,56.9045 C369.477,56.9042 369.372,56.9043 369.268,56.9045 L369.268,56.9045 Z M430.504,25.4312 C430.576,25.4317 430.647,25.4334 430.719,25.4351 C430.774,25.4367 430.829,25.4384 430.884,25.4403 C431.512,25.4642 432.139,25.5123 432.763,25.5857 C433.263,25.6445 433.762,25.7195 434.258,25.8145 C434.614,25.883 434.969,25.9619 435.321,26.0539 C435.59,26.1242 435.857,26.2024 436.12,26.2898 C436.314,26.3541 436.506,26.4233 436.696,26.4985 C436.851,26.5597 437.004,26.6249 437.155,26.6946 C437.271,26.7484 437.387,26.8049 437.501,26.8645 C438.156,27.2067 438.772,27.6529 439.222,28.2458 C439.288,28.3328 439.35,28.4227 439.408,28.5153 C439.481,28.6323 439.547,28.7537 439.605,28.8788 C439.689,29.0575 439.756,29.2438 439.807,29.4347 C439.856,29.6221 439.888,29.8138 439.905,30.0069 C439.912,30.0964 439.916,30.1861 439.917,30.276 C439.917,30.3822 439.918,30.4885 439.918,30.5947 C439.923,31.0592 439.931,31.5236 439.936,31.988 C439.937,32.1443 439.938,32.3007 439.938,32.457 C439.938,32.9128 439.932,33.3686 439.915,33.8241 C439.885,34.5858 439.823,35.3468 439.712,36.1011 C439.589,36.9308 439.405,37.7526 439.142,38.5495 C438.862,39.3958 438.494,40.2128 438.029,40.9738 C437.689,41.5311 437.298,42.0575 436.864,42.5446 C436.291,43.1863 435.643,43.7585 434.943,44.2581 C434.178,44.8043 433.352,45.2637 432.495,45.6486 C432.26,45.7538 432.024,45.8536 431.785,45.9482 C431.647,46.0028 431.508,46.0551 431.37,46.1082 C431.23,46.1618 431.09,46.2158 430.95,46.2698 C430.655,46.3837 430.361,46.4982 430.067,46.6131 C428.086,47.3898 426.113,48.1876 424.144,48.9939 C422.226,49.7793 420.312,50.573 418.4,51.3715 C415.694,52.501 412.993,53.64 410.295,54.7852 C408.157,55.6926 406.02,56.6035 403.886,57.5202 C403.86,57.5439 403.834,57.5687 403.807,57.5934 C403.626,57.7688 403.463,57.962 403.313,58.1649 C403.104,58.449 402.922,58.753 402.766,59.0692 C402.694,59.2144 402.628,59.3622 402.567,59.5122 C402.127,60.5949 401.964,61.7745 401.985,62.9385 C401.996,63.5404 402.056,64.1409 402.154,64.7348 C402.214,65.1034 402.288,65.4695 402.382,65.8311 C402.54,66.4427 402.751,67.0411 403.017,67.614 C403.444,68.5313 404.017,69.3802 404.716,70.1125 C405.178,70.5974 405.695,71.0312 406.251,71.4049 C406.884,71.83 407.568,72.1786 408.283,72.4439 C409.183,72.778 410.133,72.9827 411.092,73.0399 C411.589,73.0696 412.088,73.0519 412.585,73.0308 C413.173,73.0058 413.761,72.9709 414.348,72.9333 C415.185,72.8797 416.022,72.8193 416.858,72.756 C417.839,72.6818 418.82,72.6033 419.801,72.5225 C422.772,72.278 425.741,72.0133 428.709,71.7416 C432.121,71.4292 435.532,71.106 438.942,70.7745 L439.207,70.7485 C439.247,70.7478 439.286,70.744 439.325,70.7463 C439.482,70.7557 439.635,70.8155 439.757,70.9155 C439.818,70.9654 439.87,71.0247 439.912,71.091 C439.997,71.2237 440.039,71.3823 440.029,71.5396 C440.025,71.6181 440.008,71.6954 439.979,71.7687 C439.95,71.842 439.91,71.9103 439.86,71.9711 C439.81,72.0319 439.751,72.0845 439.685,72.1269 C439.618,72.1693 439.546,72.2009 439.47,72.2208 C439.432,72.2307 439.392,72.2345 439.354,72.2414 C438.62,72.3132 437.886,72.3841 437.153,72.4548 C433.79,72.7777 430.427,73.0937 427.063,73.3975 C424.313,73.6458 421.563,73.8872 418.811,74.108 C417.289,74.2302 415.765,74.3478 414.241,74.4431 C413.661,74.4793 413.081,74.5128 412.5,74.5355 C412.193,74.5475 411.885,74.5575 411.577,74.5559 C411.385,74.5549 411.194,74.5487 411.002,74.5373 C409.557,74.451 408.128,74.0765 406.822,73.4525 C405.869,72.9973 404.981,72.4073 404.197,71.6993 C403.552,71.1166 402.979,70.455 402.495,69.7335 C402.05,69.0722 401.681,68.3615 401.388,67.6207 C401.17,67.0687 400.995,66.5003 400.859,65.9225 C400.77,65.5395 400.698,65.1522 400.64,64.7631 C400.504,63.8522 400.449,62.9273 400.506,62.0074 C400.584,60.739 400.88,59.4759 401.455,58.338 C401.55,58.1493 401.653,57.9644 401.763,57.7841 C401.967,57.4515 402.197,57.1341 402.455,56.8409 C402.548,56.7347 402.645,56.6317 402.746,56.533 C402.833,56.4488 402.922,56.3677 403.016,56.2924 L403.029,56.2827 C403.108,56.2287 403.108,56.2287 403.194,56.1852 C403.802,55.9241 404.41,55.6636 405.018,55.4032 C409.664,53.4166 414.316,51.4456 418.981,49.504 C420.88,48.7135 422.782,47.928 424.687,47.152 C426.294,46.4975 427.904,45.8488 429.52,45.2163 C429.887,45.0726 430.255,44.9297 430.623,44.7881 C430.794,44.7223 430.965,44.657 431.136,44.5912 C431.2,44.5662 431.264,44.5409 431.328,44.5155 C431.662,44.3793 431.993,44.2341 432.318,44.0751 C432.978,43.7518 433.613,43.3762 434.205,42.9403 C434.822,42.486 435.39,41.9653 435.888,41.3818 C436.235,40.9742 436.546,40.5365 436.819,40.0754 C437.023,39.7292 437.206,39.3699 437.366,39.0011 C437.662,38.3223 437.882,37.6126 438.042,36.8902 C438.176,36.2882 438.267,35.6774 438.328,35.064 C438.383,34.5119 438.413,33.9574 438.427,33.4028 C438.439,32.9359 438.439,32.469 438.436,32.002 C438.431,31.5709 438.424,31.1397 438.419,30.7085 C438.418,30.6074 438.418,30.5063 438.417,30.4052 C438.417,30.3543 438.418,30.3034 438.417,30.2525 C438.416,30.2239 438.414,30.1953 438.413,30.1667 C438.403,30.0276 438.379,29.89 438.339,29.7564 C438.317,29.6831 438.29,29.6113 438.259,29.5414 C438.09,29.1637 437.796,28.8564 437.47,28.609 C437.418,28.5694 437.364,28.5312 437.31,28.4942 C437.243,28.4481 437.174,28.4039 437.104,28.3615 C437.019,28.3099 436.932,28.261 436.845,28.2143 C436.727,28.1515 436.606,28.0928 436.485,28.0377 C436.329,27.9671 436.171,27.9022 436.011,27.8419 C435.8,27.7622 435.585,27.6905 435.369,27.6253 C435.1,27.5444 434.829,27.4729 434.556,27.4102 C434.205,27.3298 433.852,27.261 433.498,27.2029 C433.056,27.1306 432.613,27.0739 432.168,27.0302 C431.822,26.9962 431.475,26.9701 431.127,26.9523 C430.906,26.941 430.685,26.9325 430.464,26.9309 L390.433,25.0552 C390.394,25.0503 390.355,25.0484 390.316,25.0405 C390.239,25.0246 390.165,24.9966 390.097,24.9576 C390.028,24.9187 389.967,24.8692 389.914,24.811 C389.861,24.7528 389.817,24.6866 389.785,24.6149 C389.72,24.4713 389.702,24.3085 389.734,24.1542 C389.75,24.0771 389.778,24.003 389.817,23.9346 C389.855,23.8663 389.905,23.8045 389.963,23.7515 C390.08,23.6454 390.229,23.5779 390.386,23.5606 C390.425,23.5563 390.464,23.5581 390.503,23.5569 C403.837,24.1816 417.171,24.8064 430.504,25.4312 L430.504,25.4312 Z M188.419,23.8961 L188.419,67.5565 C188.518,67.4782 188.637,67.4253 188.762,67.4046 C188.803,67.3979 188.844,67.398 188.885,67.3947 C189.223,67.3954 189.56,67.3969 189.897,67.3986 C193.067,67.417 196.237,67.4606 199.406,67.5257 C202.92,67.5978 206.433,67.6967 209.944,67.8326 C211.518,67.8935 213.091,67.962 214.663,68.0401 C215.188,68.0662 215.713,68.0933 216.237,68.1216 C216.522,68.137 216.807,68.1538 217.092,68.1678 C217.191,68.1724 217.29,68.1766 217.39,68.1803 C217.906,68.1986 218.424,68.2032 218.94,68.189 C219.348,68.1779 219.756,68.1554 220.162,68.1197 C220.479,68.0919 220.795,68.0561 221.11,68.0111 C221.333,67.9794 221.554,67.9432 221.775,67.9021 C221.967,67.8662 222.158,67.8266 222.349,67.7829 C223.587,67.4994 224.796,67.0423 225.856,66.3356 C226.036,66.2159 226.211,66.0893 226.38,65.9557 C226.626,65.7622 226.86,65.5541 227.08,65.3322 C227.393,65.0166 227.677,64.6728 227.928,64.306 C228.289,63.779 228.58,63.2052 228.796,62.6045 C228.952,62.1718 229.069,61.725 229.144,61.2715 C229.171,61.1109 229.193,60.9494 229.207,60.7874 C229.218,60.6703 229.226,60.5528 229.227,60.4352 C229.227,60.3887 229.224,60.3422 229.223,60.2957 C229.218,60.1586 229.214,60.0216 229.209,59.8845 C229.202,59.6624 229.194,59.4404 229.187,59.2183 C229.084,56.2395 228.969,53.261 228.845,50.283 C228.755,48.133 228.66,45.9833 228.56,43.8338 C228.495,42.4458 228.428,41.0578 228.358,39.67 C228.306,38.6382 228.253,37.6065 228.198,36.5748 C228.176,36.1555 228.153,35.7361 228.13,35.3168 C228.112,34.9794 228.096,34.6417 228.072,34.3047 C228.04,33.8512 227.995,33.3986 227.934,32.948 C227.887,32.6 227.831,32.2531 227.764,31.9084 C227.714,31.6476 227.657,31.388 227.593,31.1302 C227.542,30.9245 227.487,30.7199 227.427,30.5167 C227.087,29.3663 226.589,28.2488 225.858,27.2917 C225.762,27.1664 225.663,27.0441 225.559,26.9251 C225.419,26.7644 225.273,26.6099 225.119,26.4624 C224.89,26.2423 224.646,26.0381 224.388,25.8523 C223.947,25.5349 223.468,25.2725 222.965,25.0686 C222.258,24.7821 221.507,24.6113 220.749,24.5375 C220.12,24.4764 219.485,24.4807 218.857,24.5438 C218.639,24.5657 218.421,24.595 218.205,24.6326 C218.058,24.6582 217.91,24.6869 217.765,24.7243 L217.761,24.7254 C217.652,24.746 217.652,24.746 217.542,24.7504 L188.392,23.7617 L188.419,23.8961 Z M344.569,12.346 C348.732,12.3737 352.895,12.3975 357.058,12.4123 C358.407,12.4171 359.756,12.4209 361.105,12.4232 C361.621,12.424 362.137,12.4247 362.653,12.425 C362.935,12.4252 363.218,12.4237 363.5,12.4257 C363.565,12.4264 363.631,12.4277 363.696,12.4293 C363.993,12.4386 364.291,12.4592 364.586,12.4958 C365.194,12.5709 365.794,12.7099 366.367,12.9258 C366.802,13.0895 367.22,13.297 367.612,13.5474 C367.919,13.7439 368.209,13.9664 368.479,14.2116 C368.669,14.385 368.85,14.5695 369.019,14.7636 C369.14,14.9017 369.255,15.0446 369.365,15.1916 C370.084,16.1564 370.556,17.2865 370.849,18.4483 C370.897,18.6379 370.94,18.8286 370.979,19.0201 C371.027,19.2567 371.069,19.4946 371.104,19.7334 C371.151,20.0501 371.186,20.3684 371.212,20.6875 C371.238,21.0179 371.254,21.3493 371.258,21.6808 C371.262,21.9813 371.257,22.2822 371.237,22.5821 L371.239,22.5621 C371.278,23.2368 371.319,23.9115 371.359,24.5862 C371.394,25.1603 371.429,25.7343 371.464,26.3084 C371.608,28.6651 371.755,31.0216 371.911,33.3776 C371.947,33.9179 371.983,34.4581 372.02,34.9984 C372.045,35.3595 372.071,35.7205 372.096,36.0816 C372.098,36.1261 372.101,36.1706 372.103,36.2151 C372.108,36.3246 372.112,36.434 372.113,36.5436 C372.116,36.7978 372.107,37.052 372.086,37.3053 C372.031,37.984 371.89,38.6548 371.663,39.2968 C371.394,40.0541 371.007,40.7667 370.529,41.4121 C370.028,42.0886 369.43,42.6919 368.77,43.2134 C368.493,43.4322 368.205,43.6369 367.907,43.8255 C367.668,43.9765 367.423,44.1192 367.169,44.2423 L367.151,44.2506 C367.057,44.2874 367.057,44.2874 366.958,44.3112 C366.741,44.3486 366.523,44.3854 366.305,44.4221 C364.16,44.7794 362.01,45.1118 359.857,45.4186 C357.975,45.6868 356.09,45.9358 354.202,46.1562 C352.338,46.3737 350.471,46.5651 348.599,46.7036 C347.565,46.7801 346.528,46.8405 345.491,46.8708 C345.164,46.8804 344.836,46.8868 344.509,46.8893 C344.333,46.8906 344.157,46.8915 343.982,46.8877 C343.746,46.8825 343.51,46.8695 343.275,46.8483 C342.725,46.7985 342.178,46.7019 341.646,46.5505 C341.065,46.3853 340.504,46.1546 339.978,45.8573 C339.557,45.6189 339.16,45.3383 338.794,45.0214 C338.282,44.578 337.832,44.0647 337.449,43.5067 C336.918,42.734 336.515,41.8786 336.215,40.9916 C335.992,40.3308 335.826,39.6509 335.712,38.9631 C335.671,38.7173 335.637,38.4704 335.61,38.2228 C335.583,37.9747 335.563,37.7259 335.554,37.4765 L335.553,37.4397 L335.552,37.3899 C335.568,36.9558 335.583,36.5215 335.598,36.0873 C335.672,33.9185 335.737,31.7494 335.79,29.5799 C335.84,27.5566 335.881,25.533 335.905,23.5091 C335.913,22.8021 335.919,22.0951 335.922,21.3881 C335.924,21.0173 335.923,20.6465 335.925,20.2758 C335.926,20.1868 335.926,20.1868 335.928,20.0979 C335.933,19.9246 335.94,19.7514 335.953,19.5785 C335.974,19.3043 336.006,19.031 336.05,18.7597 C336.171,18.0294 336.384,17.3135 336.707,16.6465 C336.908,16.2301 337.152,15.8339 337.433,15.4667 C337.622,15.2206 337.827,14.9876 338.047,14.7693 C338.202,14.6157 338.365,14.4693 338.533,14.3306 C339.56,13.485 340.805,12.9337 342.092,12.6222 C342.465,12.532 342.843,12.4613 343.223,12.4116 C343.485,12.3773 343.749,12.3518 344.013,12.3432 L344.049,12.3423 C344.222,12.3435 344.396,12.3447 344.569,12.346 L344.569,12.346 Z M344.055,13.8426 C343.842,13.8496 343.629,13.8713 343.418,13.899 C343.091,13.9417 342.766,14.0025 342.445,14.0801 C342.275,14.1213 342.106,14.1673 341.939,14.2183 C341.01,14.5014 340.117,14.9407 339.38,15.5788 C339.273,15.6713 339.169,15.7679 339.07,15.8684 C338.91,16.029 338.761,16.1996 338.624,16.3792 C338.404,16.6656 338.214,16.9747 338.057,17.2996 C337.768,17.8979 337.59,18.5452 337.5,19.2026 C337.468,19.4371 337.447,19.673 337.436,19.9094 C337.429,20.0355 337.426,20.1616 337.425,20.2879 C337.424,20.5414 337.424,20.7949 337.423,21.0484 C337.412,24.0183 337.356,26.9879 337.281,29.9569 C337.244,31.4502 337.201,32.9433 337.154,34.4363 C337.122,35.4251 337.09,36.4138 337.053,37.4024 C337.053,37.4387 337.055,37.475 337.057,37.5113 C337.08,37.9406 337.131,38.3682 337.204,38.7918 C337.299,39.3427 337.432,39.8876 337.606,40.4191 C337.836,41.1235 338.14,41.8064 338.538,42.433 C338.84,42.9096 339.197,43.3523 339.609,43.7378 C339.902,44.0108 340.222,44.2542 340.564,44.4618 C340.99,44.721 341.45,44.9233 341.928,45.0697 C342.397,45.2137 342.883,45.3042 343.372,45.3508 C343.585,45.3712 343.8,45.3833 344.015,45.388 C344.176,45.3916 344.337,45.3905 344.498,45.3893 C344.685,45.3879 344.873,45.3851 345.06,45.3812 C345.769,45.3663 346.478,45.3351 347.186,45.294 C348.378,45.2249 349.568,45.1277 350.757,45.0147 C352.083,44.8887 353.407,44.7425 354.729,44.5831 C356.509,44.3686 358.285,44.1299 360.059,43.8743 C361.166,43.7148 362.272,43.5484 363.377,43.3757 C364.432,43.2109 365.485,43.0404 366.537,42.8616 L366.597,42.8514 C366.771,42.7621 366.94,42.6624 367.105,42.5579 C367.394,42.3752 367.671,42.1748 367.936,41.9591 C368.631,41.3941 369.242,40.7204 369.703,39.9509 C369.825,39.7469 369.936,39.5363 370.036,39.3203 C370.146,39.0809 370.241,38.8347 370.32,38.5834 C370.473,38.097 370.566,37.5919 370.599,37.0831 C370.617,36.7996 370.617,36.5156 370.602,36.232 C370.59,36.0274 370.574,35.8229 370.56,35.6186 C370.535,35.2692 370.512,34.9198 370.488,34.5704 C370.237,30.8471 370.008,27.1223 369.785,23.3971 L369.76,22.9653 L369.738,22.6002 L369.739,22.4997 C369.741,22.4693 369.743,22.4389 369.745,22.4085 C369.748,22.3452 369.751,22.2818 369.753,22.2185 C369.768,21.7479 369.754,21.2764 369.717,20.8072 C369.691,20.4891 369.654,20.1718 369.605,19.8564 C369.567,19.609 369.521,19.3628 369.467,19.1183 C369.425,18.9316 369.379,18.7459 369.327,18.5617 C369.289,18.4252 369.248,18.2896 369.204,18.1549 C368.894,17.2152 368.428,16.3117 367.743,15.5898 C367.617,15.4571 367.485,15.3308 367.345,15.2122 C367.145,15.0416 366.931,14.8867 366.706,14.75 C366.385,14.5554 366.043,14.3975 365.689,14.2756 C365.224,14.1157 364.739,14.0176 364.251,13.9673 C363.982,13.9397 363.713,13.9272 363.444,13.9253 C363.18,13.9247 362.916,13.9252 362.652,13.925 C362.136,13.9247 361.619,13.9239 361.102,13.9232 C356.767,13.9148 352.431,13.8939 348.095,13.8686 C347.385,13.8642 346.675,13.8599 345.966,13.8553 C345.497,13.8522 345.027,13.8491 344.558,13.8459 C344.391,13.8448 344.223,13.8387 344.055,13.8426 L344.055,13.8426 Z" fill="#FFFFFF"></path>
        </g>
    </g>
</svg>